<svg xmlns="http://www.w3.org/2000/svg" width="381" height="378" >
  <path fill="#df79ac"  d="M129.5 246.6c34.7-102.8 82.1-109.1 140.3-35.5a85.8 85.8 0 0 0 24.2 21.3c74.2 43 61 113.4.9 115.7-7.2.2-14.4-.8-21.3-2.6a80.6 80.6 0 0 0-68.9 10.4C129 419.5 52.5 335 115.8 269.6a60.9 60.9 0 0 0 13.7-23Z" clip-rule="evenodd"/>
  <path fill="#df79ac" d="M319.7 219.7c25.3 2.3 57.3-25.4 60.5-62.1 3.3-36.7-23.4-68.6-48.7-70.8-25.3-2.3-56.2 25.7-59.4 62.4-3.3 36.7 22.3 68.3 47.6 70.5Z"/>
  <path fill="#df79ac" d="M66.8 107.7c11 35.2 45 51.4 69.3 43.8 24.2-7.6 38.8-48.4 27.7-83.6-11-35.1-43.5-51.4-67.7-43.8-24.3 7.6-40.4 48.4-29.3 83.6Z"/>
  <path fill="#df79ac" d="M82.4 263.2c23.1-10.6 32.7-50.6 17.2-84.1-15.4-33.5-50-47.7-73.1-37.1-23.1 10.6-35 51-19.5 84.4C22.5 260 59.3 274 82.4 263.2Z"/>
  <path fill="#df79ac" d="M178.9 69.7c2.2 36.8 32.3 65.4 57.7 63.8 25.4-1.5 51.8-32.6 49.6-69.4-2.3-36.8-32.4-65.4-57.7-63.8-25.4 1.5-51.9 32.6-49.6 69.4Z"/>
</svg>