<svg width="859" height="387" viewBox="0 0 859 387" fill="none" xmlns="http://www.w3.org/2000/svg">
<g filter="url(#filter0_d_10531_50)">
<path d="M541.739 130.676H516.76V314.744H541.739V130.676Z" fill="url(#paint0_linear_10531_50)"/>
<path d="M614.395 12.9663H579.203V318.497H614.395V12.9663Z" fill="url(#paint1_linear_10531_50)"/>
<path d="M644.217 298.457H486.924C476.751 298.457 468.504 306.707 468.504 316.882V322.608C468.504 332.783 476.751 341.032 486.924 341.032H644.217C654.389 341.032 662.636 332.783 662.636 322.608V316.882C662.636 306.707 654.389 298.457 644.217 298.457Z" fill="#241D50"/>
<path d="M463.993 171.992H667.157C667.906 171.992 668.647 172.14 669.339 172.426C670.031 172.713 670.659 173.133 671.189 173.663C671.718 174.192 672.138 174.821 672.425 175.513C672.711 176.205 672.859 176.946 672.859 177.695V187.587C672.859 189.097 672.259 190.545 671.193 191.612C670.125 192.68 668.677 193.279 667.169 193.279H463.981C462.473 193.279 461.025 192.68 459.957 191.612C458.891 190.545 458.291 189.097 458.291 187.587V177.695C458.291 176.946 458.439 176.205 458.725 175.513C459.012 174.821 459.432 174.192 459.961 173.663C460.491 173.133 461.119 172.713 461.811 172.426C462.503 172.14 463.244 171.992 463.993 171.992Z" fill="url(#paint2_linear_10531_50)"/>
<path d="M647.134 0H547.439C542.051 0 537.684 4.36885 537.684 9.75813V12.7768C537.684 18.1661 542.051 22.535 547.439 22.535H647.134C652.522 22.535 656.889 18.1661 656.889 12.7768V9.75813C656.889 4.36885 652.522 0 647.134 0Z" fill="#241D50"/>
<path d="M555 115.804C555.02 121.148 553.58 126.398 550.832 131H508.167C505.425 126.396 503.986 121.147 504 115.804C504 100.454 515.408 88 529.493 88C543.58 88 555 100.454 555 115.804Z" fill="#353063"/>
<path d="M555.114 67.3598H500.924C498.216 67.3598 495.535 67.8939 493.034 68.9319C490.533 69.9699 488.26 71.4906 486.347 73.408C484.435 75.3254 482.919 77.6014 481.887 80.1053C480.855 82.6091 480.327 85.2926 480.332 88.0012V111.928C480.332 117.391 482.502 122.63 486.364 126.492C490.225 130.355 495.463 132.525 500.924 132.525H555.114C560.576 132.525 565.813 130.355 569.675 126.492C573.536 122.63 575.706 117.391 575.706 111.928V88.0012C575.712 85.2926 575.183 82.6091 574.151 80.1053C573.119 77.6014 571.603 75.3254 569.69 73.408C567.778 71.4906 565.506 69.9699 563.004 68.9319C560.503 67.8939 557.822 67.3598 555.114 67.3598ZM548.499 130.253H508.931C506.388 125.932 505.053 121.007 505.067 115.994C505.067 101.591 515.646 89.9057 528.709 89.9057C541.773 89.9057 552.364 101.591 552.364 115.994C552.382 121.009 551.047 125.934 548.499 130.253Z" fill="#241D50"/>
<path d="M764.082 280.324C765.077 277.036 763.06 259.462 723.26 251.347C683.46 243.231 638.881 237.102 609.992 242.045C576.311 247.869 573.252 275.687 577.333 287.281C581.415 298.874 753.875 313.912 764.082 280.324Z" fill="url(#paint3_linear_10531_50)"/>
<path d="M623.524 262.805C654.863 268.581 703.503 293.22 738.903 275.958C786.101 252.94 778.764 324.191 757.781 335.154C736.798 346.117 602.466 348.958 585.768 337.344C570.031 326.381 567.594 287.104 579.453 268.283C587.947 254.852 616.098 261.435 623.524 262.805Z" fill="url(#paint4_linear_10531_50)"/>
<path d="M689.697 231.315L689.697 231.315C698.96 230.527 710.137 234.186 717.566 240.594C721.274 243.794 724.022 247.655 725.151 251.96C726.277 256.252 725.806 261.029 723 266.102C717.404 276.219 705.824 280.128 692.757 280.139C679.705 280.15 665.317 276.264 654.35 270.965C643.438 265.693 636.747 257.437 633.787 250.435C632.304 246.927 631.775 243.774 632.082 241.487C632.235 240.346 632.592 239.452 633.11 238.829C633.62 238.216 634.307 237.839 635.194 237.756L635.204 237.755L635.214 237.754L635.147 237.258C635.214 237.754 635.214 237.753 635.214 237.753L635.215 237.753L635.22 237.753L635.24 237.75L635.317 237.74L635.619 237.699C635.885 237.663 636.277 237.61 636.784 237.542C637.796 237.407 639.264 237.211 641.084 236.971C644.723 236.492 649.772 235.837 655.409 235.131C666.685 233.72 680.303 232.111 689.697 231.315Z" fill="white" stroke="#D7D7D7"/>
<path d="M712.432 321.709C692.092 316.387 723.884 291.66 726.951 268.148C730.017 244.635 713.84 248.764 713.84 248.764C727.276 264.961 695.7 290.677 686.819 306.658C677.938 322.638 702.461 337.412 718.029 337.574C733.597 337.737 732.778 327.032 712.432 321.709Z" fill="white"/>
<path d="M635.526 304.353C645.902 310.116 637.218 278.758 650.627 272.975C660.313 268.792 651.588 256.283 651.588 256.283C651.588 256.283 611.788 291.172 635.526 304.353Z" fill="white"/>
<path d="M654.618 220.118C654.68 220.255 654.723 220.358 654.75 220.428L654.707 220.619L654.951 220.814C660.799 225.482 663.353 230.219 663.776 234.706C664.2 239.203 662.493 243.55 659.621 247.448C656.748 251.346 652.735 254.761 648.624 257.37C644.52 259.975 640.354 261.754 637.18 262.419C629.422 263.252 624.369 262.704 620.885 261.453C617.416 260.208 615.46 258.25 613.916 256.162L613.916 256.161C612.093 253.7 611.332 252.195 611.022 251.331C610.868 250.9 610.83 250.64 610.823 250.507C610.821 250.461 610.823 250.431 610.824 250.414L610.916 250.191L610.748 249.965L603.39 240.025L603.39 240.025L603.388 240.021C603.255 239.846 603.169 239.638 603.139 239.419C603.109 239.201 603.135 238.979 603.215 238.772C603.295 238.566 603.426 238.384 603.595 238.243L603.596 238.243C603.764 238.102 603.966 238.007 604.184 237.966C606.185 237.594 608.917 237.111 611.267 236.806C612.443 236.654 613.512 236.547 614.341 236.52C614.756 236.506 615.098 236.513 615.357 236.54C615.486 236.554 615.586 236.572 615.658 236.591C615.728 236.61 615.753 236.625 615.754 236.625L616.254 236.973L616.497 236.413C618.288 232.284 621.95 229.191 625.625 226.987C629.292 224.789 632.914 223.511 634.541 222.988L634.711 222.933L634.808 222.784L645.394 206.512L645.395 206.511C645.514 206.326 645.68 206.175 645.875 206.073C646.071 205.972 646.289 205.923 646.509 205.932L646.509 205.932C646.729 205.941 646.942 206.006 647.129 206.124L647.13 206.124C647.316 206.24 647.468 206.404 647.573 206.598C648.808 208.906 650.638 212.337 652.15 215.231C652.906 216.678 653.581 217.989 654.061 218.958C654.302 219.443 654.492 219.837 654.618 220.118Z" fill="white" stroke="#D7D7D7"/>
<path d="M643.702 243.502C643.637 243.494 643.572 243.498 643.509 243.516C643.446 243.533 643.387 243.563 643.336 243.603C643.285 243.644 643.243 243.694 643.211 243.751C643.18 243.808 643.16 243.871 643.154 243.936C643.154 243.977 642.693 248.004 640.663 248.872C639.776 249.259 638.632 248.994 637.36 248.079C637.25 247.965 637.104 247.893 636.947 247.875C636.841 247.87 636.737 247.899 636.649 247.957C636.56 248.015 636.493 248.1 636.457 248.2C636.421 248.299 636.417 248.407 636.446 248.509C636.476 248.61 636.538 248.699 636.622 248.764L636.73 248.838C636.987 249.137 637.563 250.242 637.265 250.913C637.021 251.469 636.08 251.679 634.618 251.496C634.489 251.48 634.359 251.517 634.257 251.597C634.154 251.677 634.087 251.794 634.07 251.923C634.054 252.053 634.09 252.184 634.17 252.288C634.25 252.392 634.367 252.461 634.496 252.479C635.059 252.542 635.626 252.542 636.189 252.479C636.532 252.468 636.87 252.385 637.179 252.234C637.488 252.083 637.762 251.869 637.982 251.604C638.166 251.318 638.283 250.994 638.324 250.655C638.365 250.317 638.33 249.974 638.219 249.652C638.66 249.864 639.142 249.982 639.631 249.997C640.121 250.012 640.609 249.924 641.062 249.74C643.614 248.608 644.115 244.201 644.135 244.011C644.141 243.887 644.099 243.765 644.019 243.671C643.939 243.576 643.825 243.516 643.702 243.502Z" fill="#2A2460"/>
<path fill-rule="evenodd" clip-rule="evenodd" d="M634.826 245.435C634.731 245.435 638.731 239.496 636.687 248.357C636.687 248.323 628.071 246.926 634.826 245.435Z" fill="url(#paint5_linear_10531_50)"/>
<path opacity="0.43" fill-rule="evenodd" clip-rule="evenodd" d="M651.033 238.397C659.156 228.159 668.449 226.193 669.079 226.105C658.837 225.773 651.033 238.397 651.033 238.397Z" fill="#2A2460"/>
<path opacity="0.43" fill-rule="evenodd" clip-rule="evenodd" d="M651.748 239.136C662.111 232.166 671.174 233.075 671.77 233.197C662.456 229.902 651.748 239.136 651.748 239.136Z" fill="#2A2460"/>
<path opacity="0.43" fill-rule="evenodd" clip-rule="evenodd" d="M614.8 264.283C614.732 264.283 617.88 258.059 626.808 254.472C626.835 254.472 616.682 257.211 614.8 264.283Z" fill="#2A2460"/>
<path opacity="0.43" fill-rule="evenodd" clip-rule="evenodd" d="M619.057 267.585C619.003 267.626 620.066 260.974 627.18 255.116C627.159 255.116 618.712 260.534 619.057 267.585Z" fill="#2A2460"/>
<path opacity="0.13" fill-rule="evenodd" clip-rule="evenodd" d="M646.679 210.03C644.188 210.314 640.432 220.064 640.432 220.064C643.784 219.048 647.361 219.048 650.713 220.064C650.713 220.064 649.17 209.752 646.679 210.03Z" fill="#2A2460"/>
<path opacity="0.13" fill-rule="evenodd" clip-rule="evenodd" d="M607.753 239.868C606.305 240.811 611.056 245.13 611.056 245.13C611.056 245.13 611.733 240.784 614.671 239.285C614.65 239.285 609.195 238.933 607.753 239.868Z" fill="#2A2460"/>
<path fill-rule="evenodd" clip-rule="evenodd" d="M240.781 212.85V213.101C240.805 213.063 240.817 213.02 240.817 212.976C240.817 212.932 240.805 212.887 240.781 212.85Z" fill="#241D50"/>
<path fill-rule="evenodd" clip-rule="evenodd" d="M240.761 213.101C239.469 215.033 206.701 209.399 206.701 209.399C206.701 209.399 188.71 240.512 203.919 273.809C214.343 295.505 223.095 309.661 221.809 334.096C211.92 336.13 212.739 343.276 218.986 342.992C220.157 342.992 225.863 343.093 226.669 343.025C234.297 342.348 229.376 311.16 227.596 301.41C227.217 299.607 227.062 298.515 227.062 298.515C227.062 298.515 227.271 299.593 227.596 301.41C229.112 308.583 234.182 327.113 247.226 333.893C246.258 333.357 241.201 333.696 237.749 335.31C231.204 338.361 226.73 344.002 240.985 342.992C258.746 343.398 275.85 342.958 275.85 342.958C275.85 342.958 322.893 317.716 282.423 276.263C261.954 255.3 236.165 267.131 240.761 213.101Z" fill="#241D50"/>
<path fill-rule="evenodd" clip-rule="evenodd" d="M227.595 301.437C227.27 299.62 227.061 298.542 227.061 298.542C227.061 298.542 227.216 299.634 227.595 301.437Z" fill="#241D50"/>
<path d="M328.496 223.474C306.599 230.254 300.21 262.947 295.932 309.98C295.323 316.638 292.243 336.768 271.287 342.103C271.362 342.273 271.429 342.436 271.497 342.605C300.569 345.317 313.131 318.035 314.918 294.108C318.16 258.479 322.668 234.716 341.898 240.885C350.264 244.594 354.732 215.779 328.496 223.474Z" fill="#2A2460"/>
<path fill-rule="evenodd" clip-rule="evenodd" d="M262.806 186.971C257.161 187.615 247.38 188.897 246.338 190.171C237.924 180.272 221.084 179.425 216.244 179.398L195.471 161.946C195.143 161.669 194.75 161.482 194.328 161.404C193.907 161.326 193.472 161.36 193.068 161.501C192.663 161.643 192.302 161.888 192.02 162.212C191.74 162.536 191.548 162.929 191.464 163.35C190.043 170.523 187.267 184.673 187.498 185.093C163.584 219.983 210.383 236.187 228.834 234.492C250.392 230.363 255.435 223.196 257.939 216.186C260.83 208.05 259.652 206.613 259.652 206.613L265.439 190.341C265.585 189.939 265.627 189.505 265.56 189.083C265.492 188.66 265.319 188.261 265.055 187.924C264.792 187.587 264.448 187.323 264.054 187.156C263.66 186.989 263.231 186.926 262.806 186.971Z" fill="#2A2460"/>
<path d="M227.731 218.159C225.856 219.006 224.516 219.108 223.961 218.464C223.284 217.691 223.616 215.983 223.839 215.474L223.948 215.332C224.039 215.213 224.088 215.067 224.088 214.918C224.088 214.768 224.039 214.623 223.948 214.505C223.863 214.378 223.738 214.283 223.593 214.237C223.448 214.19 223.292 214.193 223.149 214.247C222.951 214.338 222.789 214.494 222.689 214.688C221.335 216.444 219.934 217.25 218.627 217.094C215.521 216.749 213.267 211.603 213.267 211.535C213.231 211.451 213.179 211.376 213.115 211.313C213.05 211.249 212.973 211.199 212.89 211.166C212.806 211.132 212.716 211.115 212.626 211.117C212.536 211.117 212.446 211.136 212.363 211.172C212.28 211.207 212.205 211.26 212.142 211.324C212.078 211.389 212.029 211.466 211.995 211.549C211.961 211.633 211.945 211.723 211.945 211.814C211.947 211.904 211.965 211.994 212.001 212.077C212.102 212.321 214.573 218.003 218.438 218.471C219.117 218.533 219.803 218.453 220.45 218.235C221.097 218.017 221.692 217.665 222.194 217.203C222.182 217.678 222.275 218.149 222.467 218.583C222.659 219.017 222.945 219.402 223.305 219.712C223.707 219.975 224.161 220.149 224.635 220.225C225.11 220.301 225.595 220.276 226.059 220.152C226.832 219.992 227.584 219.741 228.3 219.406C228.384 219.371 228.459 219.319 228.523 219.254C228.586 219.189 228.636 219.111 228.668 219.027C228.701 218.942 228.716 218.851 228.713 218.76C228.711 218.669 228.69 218.581 228.652 218.498C228.615 218.413 228.562 218.337 228.495 218.274C228.429 218.211 228.35 218.162 228.264 218.13C228.178 218.099 228.087 218.085 227.995 218.09C227.903 218.094 227.814 218.118 227.731 218.159Z" fill="white"/>
<path fill-rule="evenodd" clip-rule="evenodd" d="M224.976 210.104C225.111 210.104 217.348 203.765 223.676 214.762C223.676 214.762 234.621 209.386 224.976 210.104Z" fill="url(#paint6_linear_10531_50)"/>
<path fill-rule="evenodd" clip-rule="evenodd" d="M171.383 198.307C172.249 198.138 185.435 197.005 200.488 207.365C200.488 207.365 184.934 193.717 171.383 198.307Z" fill="white"/>
<path fill-rule="evenodd" clip-rule="evenodd" d="M170.664 208.884C171.409 208.47 183.152 203.555 199.824 208.647C199.824 208.647 181.765 200.687 170.664 208.884Z" fill="white"/>
<path fill-rule="evenodd" clip-rule="evenodd" d="M239.379 218.952C252.761 220.098 259.509 227.163 259.408 227.156C254.047 218.471 239.379 218.952 239.379 218.952Z" fill="white"/>
<path fill-rule="evenodd" clip-rule="evenodd" d="M239.17 219.956C251.035 224.878 255.151 233.339 255.063 233.305C252.667 223.739 239.17 219.956 239.17 219.956Z" fill="white"/>
<path opacity="0.21" fill-rule="evenodd" clip-rule="evenodd" d="M194.768 167.696C191.323 168.34 193.455 182.747 193.455 182.747C197.516 180.025 202.289 178.563 207.175 178.544C207.175 178.544 198.207 167.058 194.768 167.696Z" fill="white"/>
<path opacity="0.21" fill-rule="evenodd" clip-rule="evenodd" d="M258.894 191.67C256.586 190.992 249.418 193.704 249.418 193.704C253.946 194.504 256.62 200.043 256.62 200.043C256.62 200.043 261.209 192.334 258.894 191.67Z" fill="white"/>
<path d="M387.708 341.785C381.549 341.785 375.26 339.9 369.873 337.941L367.937 337.229C359.374 334.076 350.514 330.822 342.053 333.052C339.303 333.879 336.645 334.985 334.12 336.354C332.53 337.147 330.892 337.961 329.206 338.652C325.145 340.307 319.31 341.683 314.41 338.869C314.266 338.788 314.14 338.679 314.039 338.548C313.938 338.418 313.864 338.269 313.82 338.109C313.776 337.95 313.765 337.784 313.785 337.62C313.806 337.456 313.859 337.298 313.941 337.155C314.023 337.011 314.132 336.886 314.263 336.785C314.394 336.684 314.543 336.61 314.702 336.567C314.862 336.524 315.028 336.513 315.192 336.534C315.355 336.556 315.512 336.61 315.655 336.693C319.893 339.127 325.368 337.507 328.259 336.327C329.856 335.649 331.453 334.876 332.997 334.11C335.675 332.663 338.494 331.496 341.41 330.625C350.636 328.191 359.868 331.588 368.796 334.876L370.725 335.554C379.132 338.619 389.854 341.507 398.139 336.625C398.282 336.528 398.442 336.46 398.612 336.428C398.781 336.395 398.956 336.398 399.124 336.436C399.292 336.473 399.451 336.546 399.591 336.648C399.73 336.749 399.847 336.879 399.934 337.028C400.022 337.176 400.077 337.342 400.098 337.513C400.119 337.685 400.105 337.859 400.056 338.025C400.007 338.191 399.924 338.345 399.813 338.477C399.702 338.609 399.566 338.718 399.411 338.795C395.852 340.832 391.807 341.865 387.708 341.785Z" fill="url(#paint7_linear_10531_50)"/>
<path d="M416.725 334.819C426.555 324.973 426.555 309.007 416.725 299.161C406.894 289.313 390.956 289.313 381.125 299.161C371.294 309.007 371.294 324.973 381.125 334.819C390.956 344.666 406.894 344.666 416.725 334.819Z" fill="url(#paint8_linear_10531_50)"/>
<path d="M67.1777 315.329C67.1777 315.329 104.338 302.095 157.086 314.414C102.876 333.208 71.2796 315.397 67.1777 315.329Z" fill="url(#paint9_linear_10531_50)"/>
<path d="M62.534 341.032H163.584C164.205 340.307 164.625 339.431 164.8 338.492C164.974 337.552 164.898 336.583 164.579 335.683L157.086 314.414C157.086 314.414 128.894 323.791 67.1773 315.329L60.5711 334.991C60.2097 336.076 60.2054 337.248 60.5587 338.336C60.9121 339.423 61.6044 340.368 62.534 341.032Z" fill="url(#paint10_linear_10531_50)"/>
<path opacity="0.42" d="M698.941 379H334.747C333.586 378.996 332.474 378.531 331.653 377.705C330.832 376.879 330.369 375.761 330.365 374.593C330.369 373.426 330.832 372.307 331.653 371.481C332.474 370.655 333.586 370.19 334.747 370.186H698.941C700.106 370.19 701.216 370.656 702.035 371.482C702.854 372.307 703.321 373.426 703.321 374.593C703.321 375.761 702.854 376.879 702.035 377.704C701.216 378.53 700.106 378.996 698.941 379Z" fill="url(#paint11_linear_10531_50)"/>
<path d="M854.262 349.846H8.84835C7.61206 349.858 6.42091 349.368 5.53412 348.482C4.64733 347.596 4.13667 346.385 4.11328 345.113C4.13016 343.836 4.63796 342.619 5.52546 341.727C6.41296 340.835 7.60782 340.341 8.84835 340.354H854.262C855.501 340.345 856.692 340.84 857.579 341.732C858.466 342.623 858.967 343.839 858.987 345.113C858.96 346.382 858.452 347.591 857.572 348.477C856.686 349.363 855.501 349.855 854.262 349.846Z" fill="url(#paint12_linear_10531_50)"/>
</g>
<defs>
<filter id="filter0_d_10531_50" x="0.113281" y="0" width="862.873" height="387" filterUnits="userSpaceOnUse" color-interpolation-filters="sRGB">
<feFlood flood-opacity="0" result="BackgroundImageFix"/>
<feColorMatrix in="SourceAlpha" type="matrix" values="0 0 0 0 0 0 0 0 0 0 0 0 0 0 0 0 0 0 127 0" result="hardAlpha"/>
<feOffset dy="4"/>
<feGaussianBlur stdDeviation="2"/>
<feComposite in2="hardAlpha" operator="out"/>
<feColorMatrix type="matrix" values="0 0 0 0 0 0 0 0 0 0 0 0 0 0 0 0 0 0 0.25 0"/>
<feBlend mode="normal" in2="BackgroundImageFix" result="effect1_dropShadow_10531_50"/>
<feBlend mode="normal" in="SourceGraphic" in2="effect1_dropShadow_10531_50" result="shape"/>
</filter>
<linearGradient id="paint0_linear_10531_50" x1="516.76" y1="222.71" x2="541.739" y2="222.71" gradientUnits="userSpaceOnUse">
<stop stop-color="#82CDE4"/>
<stop offset="0.23" stop-color="#69C2D8"/>
<stop offset="0.72" stop-color="#28A6BA"/>
<stop offset="1" stop-color="#0094A7"/>
</linearGradient>
<linearGradient id="paint1_linear_10531_50" x1="579.454" y1="195.602" x2="614.651" y2="195.602" gradientUnits="userSpaceOnUse">
<stop stop-color="#7BCBE2"/>
<stop offset="1" stop-color="#0096AB"/>
</linearGradient>
<linearGradient id="paint2_linear_10531_50" x1="458.291" y1="172.211" x2="672.859" y2="172.211" gradientUnits="userSpaceOnUse">
<stop stop-color="#80CDE4"/>
<stop offset="1" stop-color="#0095A9"/>
</linearGradient>
<linearGradient id="paint3_linear_10531_50" x1="575.925" y1="270.582" x2="764.258" y2="270.582" gradientUnits="userSpaceOnUse">
<stop stop-color="#E71A80"/>
<stop offset="1" stop-color="#EC6588"/>
</linearGradient>
<linearGradient id="paint4_linear_10531_50" x1="572.007" y1="302.4" x2="774.093" y2="302.4" gradientUnits="userSpaceOnUse">
<stop stop-color="#EC6588"/>
<stop offset="1" stop-color="#E71A80"/>
</linearGradient>
<linearGradient id="paint5_linear_10531_50" x1="-10463.1" y1="2301.32" x2="-10502.7" y2="2313.28" gradientUnits="userSpaceOnUse">
<stop stop-color="#EC6588"/>
<stop offset="1" stop-color="#E71A80"/>
</linearGradient>
<linearGradient id="paint6_linear_10531_50" x1="221.192" y1="211.521" x2="228.949" y2="211.521" gradientUnits="userSpaceOnUse">
<stop stop-color="#EC6588"/>
<stop offset="1" stop-color="#E71A80"/>
</linearGradient>
<linearGradient id="paint7_linear_10531_50" x1="18573.1" y1="3414.79" x2="29575.3" y2="3414.79" gradientUnits="userSpaceOnUse">
<stop stop-color="#EC6588"/>
<stop offset="1" stop-color="#E71A80"/>
</linearGradient>
<linearGradient id="paint8_linear_10531_50" x1="373.759" y1="316.989" x2="424.097" y2="316.989" gradientUnits="userSpaceOnUse">
<stop stop-color="#E71A80"/>
<stop offset="1" stop-color="#EC6588"/>
</linearGradient>
<linearGradient id="paint9_linear_10531_50" x1="67.1623" y1="315.366" x2="157.017" y2="317.16" gradientUnits="userSpaceOnUse">
<stop stop-color="#82CDE4"/>
<stop offset="0.23" stop-color="#69C2D8"/>
<stop offset="0.72" stop-color="#28A6BA"/>
<stop offset="1" stop-color="#0094A7"/>
</linearGradient>
<linearGradient id="paint10_linear_10531_50" x1="60.418" y1="326.877" x2="165.008" y2="328.965" gradientUnits="userSpaceOnUse">
<stop stop-color="#0094A7"/>
<stop offset="0.28" stop-color="#28A6BA"/>
<stop offset="0.77" stop-color="#69C2D8"/>
<stop offset="1" stop-color="#82CDE4"/>
</linearGradient>
<linearGradient id="paint11_linear_10531_50" x1="330.365" y1="374.593" x2="703.321" y2="374.593" gradientUnits="userSpaceOnUse">
<stop stop-color="#EC6588"/>
<stop offset="1" stop-color="#E71A80"/>
</linearGradient>
<linearGradient id="paint12_linear_10531_50" x1="4.11328" y1="345.102" x2="859.001" y2="345.102" gradientUnits="userSpaceOnUse">
<stop stop-color="#A775B0"/>
<stop offset="1" stop-color="#7E468E"/>
</linearGradient>
</defs>
</svg>
