<svg width="187" height="60" viewBox="0 0 187 60" fill="none" xmlns="http://www.w3.org/2000/svg">
<g clip-path="url(#clip0_13_1622)">
<path fill-rule="evenodd" clip-rule="evenodd" d="M170.941 23.025C171.111 21.2854 171.634 19.5988 172.479 18.0688C172.745 17.5104 173.171 17.0438 173.704 16.7286C174.236 16.4135 174.85 16.2641 175.467 16.2996C176.059 16.3468 176.62 16.5831 177.067 16.9735C177.514 17.364 177.824 17.8878 177.95 18.4676C178.424 20.1202 178.522 21.858 178.236 23.5532C178.079 25.3051 177.562 27.0059 176.719 28.5495C176.452 29.0993 176.027 29.557 175.498 29.8643C174.97 30.1717 174.362 30.3147 173.752 30.2751C173.158 30.2255 172.595 29.9857 172.148 29.5911C171.7 29.1965 171.392 28.6682 171.269 28.0847C170.796 26.4415 170.684 24.7155 170.941 23.025V23.025ZM186.893 24.1786C187.125 22.6343 187.026 21.0583 186.601 19.5554C186.177 18.0524 185.438 16.657 184.432 15.4618C183.406 14.2299 182.133 13.2271 180.694 12.5181C179.256 11.8091 177.685 11.4099 176.082 11.346C172.755 11.0606 169.449 12.0936 166.877 14.2225C165.606 15.2139 164.545 16.4485 163.757 17.8541C162.968 19.2598 162.468 20.8083 162.285 22.4094C162.053 23.9553 162.154 25.5329 162.582 27.0364C163.01 28.5398 163.755 29.9344 164.767 31.1262C165.798 32.3572 167.076 33.3591 168.518 34.0679C169.959 34.7766 171.533 35.1765 173.138 35.242C176.478 35.5504 179.804 34.5239 182.389 32.3869C183.643 31.3823 184.686 30.1401 185.459 28.7315C186.232 27.323 186.719 25.7758 186.893 24.1786V24.1786ZM160.79 31.0379C157.479 28.855 155.414 26.2884 154.593 23.3382C158.342 21.568 160.363 19.444 160.658 16.966C160.768 16.2624 160.727 15.5433 160.538 14.8566C160.349 14.17 160.015 13.5317 159.559 12.9841C159.069 12.4416 158.463 12.0166 157.786 11.7407C157.109 11.4648 156.378 11.3451 155.648 11.3907C154.458 11.3875 153.295 11.7422 152.309 12.4087C151.889 12.6213 151.525 12.9276 151.243 13.3037C150.961 13.6798 150.769 14.1156 150.683 14.5776L151.078 15.2851C151.369 15.7536 151.613 16.2504 151.804 16.768C151.993 17.368 151.978 18.0141 151.759 18.6041C151.471 19.3979 150.921 20.0695 150.199 20.5072C149.333 21.0675 148.361 21.4441 147.343 21.6135L147.87 17.9849C148.027 17.1331 148.009 16.2582 147.816 15.4137C147.624 14.5692 147.261 13.7728 146.75 13.0734C146.24 12.4651 145.596 11.9843 144.867 11.6692C144.139 11.3541 143.347 11.2135 142.555 11.2586C141.329 11.2736 140.13 11.6175 139.083 12.2543C138.135 12.7255 137.354 13.4743 136.842 14.401C136.813 14.4515 136.794 14.5075 136.787 14.5656C136.78 14.6236 136.785 14.6825 136.802 14.7385C136.819 14.7946 136.847 14.8466 136.884 14.8913C136.922 14.9361 136.968 14.9726 137.021 14.9987C137.255 15.1611 137.533 15.3455 137.855 15.5519C138.31 16.0258 138.582 16.6452 138.625 17.3006C138.819 18.5685 138.826 19.8582 138.646 21.1282L136.84 34.2606V34.3498L136.973 34.439H145.409C145.451 34.4262 145.49 34.4032 145.521 34.3721C145.552 34.341 145.575 34.3027 145.588 34.2606L146.862 25.1895C146.991 25.1526 147.123 25.1304 147.257 25.1235C147.436 25.1083 147.565 25.1012 147.653 25.1012C147.653 25.2481 147.668 25.5949 147.697 26.1415C147.727 26.6881 147.749 27.1012 147.763 27.3808C147.778 27.6609 147.822 28.096 147.895 28.6861C147.946 29.1571 148.036 29.6232 148.163 30.0797C148.265 30.4187 148.411 30.8467 148.602 31.3636C148.755 31.8128 148.986 32.2319 149.283 32.6019C149.594 32.9595 149.924 33.2994 150.272 33.6199C150.652 33.9787 151.101 34.257 151.591 34.4381C152.155 34.6373 152.736 34.7866 153.326 34.8842C154.052 35.0053 154.788 35.0498 155.523 35.0171C157.507 34.8769 159.368 34.0103 160.752 32.5832C161.042 32.3375 161.243 32.0033 161.324 31.6321C161.22 31.3777 161.031 31.1668 160.79 31.0343V31.0379ZM132.533 25.4625C132.768 23.4271 133.412 19.0464 134.467 12.3203V12.2311L134.335 12.0982H125.5L125.279 12.3658L123.786 24.5346C123.649 25.6414 123.258 26.7016 122.643 27.6324C121.911 28.7833 121.15 29.2847 120.358 29.1366C119.567 28.9885 119.259 28.1329 119.436 26.5697L120.49 17.9858C120.646 17.1257 120.61 16.2418 120.386 15.3969C120.162 14.552 119.755 13.7667 119.194 13.0966C118.637 12.4857 117.953 12.0046 117.19 11.6873C116.427 11.37 115.603 11.2243 114.778 11.2604C113.559 11.2736 112.366 11.6177 111.327 12.2561C110.388 12.7317 109.615 13.48 109.109 14.4027C109.062 14.481 109.046 14.5735 109.062 14.663C109.078 14.7526 109.127 14.8332 109.198 14.8899C109.402 15.0412 109.623 15.1676 109.858 15.2664C110.204 15.4492 110.493 15.7251 110.692 16.0631C111.005 16.6064 111.2 17.2096 111.264 17.8333C111.379 18.9301 111.364 20.0367 111.219 21.13L110.384 28.033C110.05 29.8667 110.453 31.7582 111.505 33.297C111.955 33.9404 112.557 34.4628 113.258 34.8178C113.958 35.1728 114.736 35.3495 115.521 35.3321C116.957 35.2975 118.355 34.8691 119.564 34.0937C121.083 33.1221 122.349 31.8023 123.256 30.2438C123.292 31.6538 123.875 32.9946 124.881 33.9831C125.903 34.9034 127.243 35.3879 128.617 35.333C129.836 35.3195 131.029 34.9753 132.068 34.3373C133.006 33.8619 133.78 33.1139 134.286 32.1915C134.316 32.1443 134.336 32.0913 134.345 32.036C134.353 31.9807 134.35 31.9242 134.336 31.8702C134.321 31.8161 134.296 31.7656 134.261 31.7219C134.226 31.6781 134.182 31.6421 134.133 31.6161C133.913 31.4688 133.634 31.269 133.297 31.0183C132.854 30.5547 132.583 29.9538 132.528 29.3151C132.349 28.0358 132.351 26.7377 132.533 25.459V25.4625ZM105.332 1.25431C105.109 1.37066 104.896 1.504 104.695 1.65313C104.285 1.92752 103.859 2.17863 103.421 2.40526C102.777 2.70337 102.097 2.91891 101.399 3.04676C100.438 3.2441 99.457 3.32557 98.4768 3.28943C96.4598 3.18643 94.4575 2.89004 92.4972 2.40437C90.2763 1.88035 88.0105 1.56934 85.7305 1.47558H84.7194C80.8228 1.59454 77.9518 2.98103 76.1061 5.63504C75.169 6.99179 74.7737 8.12757 74.9201 9.04237C74.979 9.36714 75.1244 9.50008 75.3591 9.4403C75.6688 9.27997 75.9694 9.10275 76.2596 8.90943C77.0116 8.48041 77.8171 8.1528 78.655 7.93515C79.8295 7.62024 81.0421 7.47011 82.2579 7.48904C84.2463 7.55236 86.2247 7.79665 88.1688 8.21887C90.2782 8.6495 92.4142 8.93773 94.5624 9.08163C99.5727 9.20059 103.015 7.97619 104.89 5.40842C105.315 4.92422 105.627 4.35103 105.801 3.73088C105.976 3.11073 106.01 2.45933 105.9 1.82443C105.786 1.32599 105.596 1.13595 105.332 1.25431ZM104.936 25.4143L105.771 18.5113C105.951 17.6065 105.948 16.6748 105.763 15.771C105.578 14.8671 105.215 14.0092 104.695 13.2473C104.237 12.5995 103.627 12.0747 102.918 11.7197C102.209 11.3646 101.423 11.1903 100.63 11.2122C99.1701 11.2557 97.7499 11.6995 96.5249 12.4952C94.9723 13.4902 93.6953 14.8599 92.8114 16.478C92.7445 15.0381 92.1594 13.6709 91.1639 12.6281C90.7012 12.1645 90.1489 11.7999 89.5407 11.5564C88.9325 11.313 88.2811 11.1959 87.6261 11.2122C86.1917 11.2552 84.7952 11.6833 83.5833 12.4515C82.0505 13.4065 80.7815 14.73 79.892 16.3014C79.8562 14.8951 79.2811 13.5563 78.2855 12.5621C77.2599 11.6351 75.9096 11.1503 74.5282 11.2131C73.3027 11.2279 72.1036 11.5718 71.0565 12.2088C70.114 12.6695 69.344 13.4199 68.8593 14.3501C68.8292 14.3973 68.8092 14.4503 68.8006 14.5056C68.7921 14.5609 68.7951 14.6175 68.8095 14.6716C68.824 14.7257 68.8495 14.7762 68.8845 14.8199C68.9195 14.8636 68.9632 14.8996 69.0128 14.9256C69.2323 15.0731 69.5108 15.2723 69.8481 15.5234C70.2877 15.987 70.5518 16.5893 70.5951 17.2266C70.7577 18.5052 70.7502 19.7998 70.5728 21.0764C70.3384 23.1113 69.7086 27.492 68.6835 34.2186V34.3078L68.8138 34.439H77.6492C77.7065 34.411 77.7587 34.3736 77.8036 34.3284C77.8245 34.3085 77.8412 34.2845 77.8525 34.258C77.8639 34.2314 77.8697 34.2029 77.8697 34.174L79.3181 22.3166C79.4607 21.1144 79.8496 19.9545 80.4605 18.9093C81.2221 17.7589 81.9839 17.2575 82.7461 17.405C83.5957 17.5525 83.9176 18.4081 83.7118 19.9719C83.6523 20.7386 83.5353 21.7857 83.361 23.1133C83.0968 25.031 82.6575 28.7333 82.0428 34.2204C82.0358 34.2255 82.0301 34.2323 82.0262 34.24C82.0223 34.2478 82.0202 34.2563 82.0202 34.265C82.0202 34.2737 82.0223 34.2823 82.0262 34.29C82.0301 34.2978 82.0358 34.3045 82.0428 34.3096L82.174 34.439H91.0095C91.0668 34.411 91.1189 34.3736 91.1639 34.3284C91.1848 34.3085 91.2014 34.2845 91.2128 34.258C91.2242 34.2314 91.23 34.2029 91.2299 34.174L92.2402 23.1107L92.3294 22.3139C92.4358 21.1038 92.8276 19.9361 93.4727 18.9066C94.2337 17.7562 94.9952 17.2548 95.7574 17.4023C96.607 17.5498 96.9295 18.4055 96.7249 19.9692L95.67 28.5531C95.5139 29.4134 95.5491 30.2974 95.773 31.1425C95.997 31.9876 96.4042 32.7731 96.9658 33.4433C97.5155 34.0512 98.1922 34.5308 98.9479 34.8481C99.7036 35.1654 100.52 35.3127 101.339 35.2794C102.564 35.2642 103.763 34.9203 104.811 34.2838C105.743 33.8281 106.511 33.0934 107.007 32.1817C107.066 32.1074 107.094 32.0133 107.086 31.9188C107.078 31.8242 107.034 31.7364 106.963 31.6732C106.765 31.5079 106.542 31.3735 106.304 31.2743C105.957 31.0916 105.668 30.816 105.469 30.4785C105.155 29.9342 104.953 29.3322 104.876 28.7084C104.746 27.6127 104.766 26.5045 104.936 25.4143V25.4143ZM51.4561 23.025C51.6254 21.285 52.149 19.5981 52.9947 18.0679C53.2604 17.5095 53.6866 17.0429 54.2188 16.7277C54.7511 16.4126 55.3652 16.2632 55.9827 16.2987C56.5745 16.3459 57.1353 16.5822 57.5824 16.9726C58.0295 17.3631 58.3392 17.8869 58.4656 18.4667C58.939 20.1194 59.0366 21.857 58.7512 23.5523C58.5939 25.3042 58.0774 27.005 57.234 28.5487C56.9671 29.0983 56.5425 29.556 56.0142 29.8633C55.486 30.1707 54.8782 30.3137 54.2683 30.2742C53.6737 30.2247 53.111 29.9848 52.6635 29.5903C52.2161 29.1957 51.9079 28.6674 51.7846 28.0838C51.312 26.4409 51.2 24.7152 51.4561 23.025V23.025ZM67.4081 24.1786C67.64 22.6343 67.5405 21.0584 67.1163 19.5555C66.692 18.0526 65.9528 16.6571 64.9476 15.4618C63.9213 14.2299 62.6478 13.2271 61.2095 12.5181C59.7712 11.8091 58.2 11.4099 56.5976 11.346C53.2704 11.0606 49.9642 12.0936 47.3918 14.2225C46.121 15.2139 45.0604 16.4485 44.2721 17.8541C43.4837 19.2598 42.9833 20.8083 42.8001 22.4094C42.5681 23.9552 42.6695 25.5328 43.0976 27.0363C43.5257 28.5397 44.2705 29.9342 45.282 31.1262C46.3138 32.3572 47.5914 33.3591 49.033 34.0679C50.4745 34.7766 52.0483 35.1765 53.6534 35.242C56.9932 35.5503 60.3192 34.5238 62.9038 32.3869C64.1578 31.3821 65.201 30.1399 65.974 28.7314C66.7469 27.3229 67.2342 25.7757 67.4081 24.1786V24.1786ZM41.5265 29.7995C40.2576 29.2916 39.1005 28.5398 38.1209 27.5869C37.2135 26.7418 36.4293 25.7736 35.7915 24.7104C35.2421 23.7504 34.7789 22.7436 34.4073 21.7019C34.1193 20.9439 33.8773 20.1692 33.6826 19.3821C33.5791 18.892 33.5127 18.528 33.4836 18.2901C38.1417 15.9888 40.7343 12.7438 41.2615 8.55523C41.4012 7.71457 41.3706 6.8544 41.1713 6.02583C40.9719 5.19725 40.6081 4.41718 40.1012 3.73197C39.6088 3.07985 38.9647 2.55765 38.2247 2.21064C37.4848 1.86363 36.6713 1.70227 35.8549 1.74057C34.9125 1.74764 33.9803 1.93542 33.1087 2.29373C32.3395 2.57198 31.6256 2.98398 30.9998 3.5107C30.5161 3.95324 30.3623 4.2777 30.5384 4.4841C31.2588 5.48207 31.6432 6.68309 31.6362 7.91373C31.6741 9.20857 31.4422 10.4972 30.9552 11.6976C30.4805 12.8657 29.7448 13.9097 28.8044 14.7498C27.9591 15.5624 26.8354 16.0216 25.6629 16.0337L27.2452 3.11278C27.2609 3.08565 27.2691 3.05488 27.2691 3.02356C27.2691 2.99223 27.2609 2.96146 27.2452 2.93434L27.1087 2.89062H27.0676L26.9784 2.8469C26.2162 2.5495 25.286 2.23217 24.1876 1.89492C23.0893 1.55766 21.3755 1.15944 19.0461 0.700255C16.8904 0.261643 14.6986 0.0247807 12.499 -0.00726318C10.3553 -0.00177504 8.23152 0.403374 6.2365 1.1874C4.2178 1.90577 2.47915 3.24591 1.2708 5.01496C0.568319 6.04938 0.138543 7.24442 0.0213389 8.48921C-0.108528 9.78539 0.0878216 11.0935 0.592522 12.2945C1.09948 13.5415 1.96314 14.6112 3.07537 15.3699C4.05024 16.0576 5.17033 16.5119 6.34895 16.6975C7.39371 16.8801 8.46558 16.835 9.49133 16.5654C10.3424 16.3354 11.1616 16.001 11.9305 15.5697C12.524 15.2493 13.053 14.8215 13.4905 14.3082C13.8125 13.9432 14.0524 13.5132 14.1938 13.0475C14.2333 12.9388 14.2419 12.8213 14.2186 12.708C14.1953 12.5948 14.1409 12.4902 14.0617 12.406C13.9153 12.287 13.6663 12.1101 13.3147 11.8751C12.9896 11.6634 12.7067 11.3933 12.4802 11.0784C12.1985 10.8292 11.98 10.5167 11.8425 10.1666C11.705 9.81658 11.6526 9.43893 11.6895 9.06468C11.7792 8.33785 12.0512 7.64546 12.4802 7.05186C13.0022 6.37422 13.725 5.87869 14.5454 5.63593C15.5374 5.30759 16.5984 5.24605 17.6217 5.45749C17.5926 5.75489 16.9628 10.2457 15.7324 18.9298C14.502 27.6139 13.8124 32.7108 13.6636 34.2204C13.648 34.2475 13.6397 34.2783 13.6397 34.3096C13.6397 34.3409 13.648 34.3717 13.6636 34.3988L13.7957 34.4435H23.1568C23.1889 34.4465 23.2213 34.4432 23.2522 34.4338C23.283 34.4243 23.3117 34.4089 23.3366 34.3883C23.3615 34.3678 23.382 34.3425 23.3971 34.314C23.4122 34.2855 23.4215 34.2543 23.4246 34.2222L25.0498 20.7704C25.753 20.6824 26.1633 20.6229 26.2805 20.592C26.3679 23.0705 26.4572 24.6045 26.5482 25.194C26.929 28.6748 27.881 31.3148 29.4041 33.1141C30.9273 34.9133 33.1831 35.6509 36.1717 35.3267C37.4226 35.1831 38.5938 34.6399 39.5113 33.7779C40.3453 33.0747 41.0066 32.1895 41.4444 31.1905C41.7639 30.3488 41.7907 29.8837 41.5247 29.7951L41.5265 29.7995Z" fill="#F6A6BF"/>
</g>
<path d="M18.12 56.4239C17.2667 56.4239 16.5093 56.2372 15.848 55.8639C15.1867 55.4905 14.664 54.9785 14.28 54.3279C13.896 53.6665 13.704 52.9199 13.704 52.0879C13.704 51.2452 13.896 50.4985 14.28 49.8479C14.664 49.1972 15.1867 48.6905 15.848 48.3279C16.5093 47.9545 17.2667 47.7679 18.12 47.7679C18.9627 47.7679 19.7147 47.9545 20.376 48.3279C21.048 48.6905 21.5707 49.1972 21.944 49.8479C22.328 50.4879 22.52 51.2345 22.52 52.0879C22.52 52.9305 22.328 53.6772 21.944 54.3279C21.5707 54.9785 21.048 55.4905 20.376 55.8639C19.7147 56.2372 18.9627 56.4239 18.12 56.4239ZM18.12 55.0799C18.664 55.0799 19.1493 54.9572 19.576 54.7119C20.0133 54.4665 20.3547 54.1199 20.6 53.6719C20.8453 53.2132 20.968 52.6852 20.968 52.0879C20.968 51.4799 20.8453 50.9572 20.6 50.5199C20.3547 50.0719 20.0133 49.7252 19.576 49.4799C19.1493 49.2345 18.664 49.1119 18.12 49.1119C17.576 49.1119 17.0907 49.2345 16.664 49.4799C16.2373 49.7252 15.896 50.0719 15.64 50.5199C15.384 50.9572 15.256 51.4799 15.256 52.0879C15.256 52.6852 15.384 53.2132 15.64 53.6719C15.896 54.1199 16.2373 54.4665 16.664 54.7119C17.0907 54.9572 17.576 55.0799 18.12 55.0799ZM26.1055 56.3279V48.7919L26.4895 49.1919H23.0015V47.8479H30.7455V49.1919H27.2735L27.6415 48.7919V56.3279H26.1055ZM35.7171 56.4239C34.8105 56.4239 34.0105 56.2372 33.3171 55.8639C32.6345 55.4905 32.1011 54.9785 31.7171 54.3279C31.3438 53.6772 31.1571 52.9305 31.1571 52.0879C31.1571 51.2452 31.3385 50.4985 31.7011 49.8479C32.0745 49.1972 32.5811 48.6905 33.2211 48.3279C33.8718 47.9545 34.6025 47.7679 35.4131 47.7679C36.2345 47.7679 36.9598 47.9492 37.5891 48.3119C38.2185 48.6745 38.7091 49.1865 39.0611 49.8479C39.4238 50.4985 39.6051 51.2612 39.6051 52.1359C39.6051 52.1999 39.5998 52.2745 39.5891 52.3599C39.5891 52.4452 39.5838 52.5252 39.5731 52.5999H32.3571V51.4959H38.7731L38.1491 51.8799C38.1598 51.3359 38.0478 50.8505 37.8131 50.4239C37.5785 49.9972 37.2531 49.6665 36.8371 49.4319C36.4318 49.1865 35.9571 49.0639 35.4131 49.0639C34.8798 49.0639 34.4051 49.1865 33.9891 49.4319C33.5731 49.6665 33.2478 50.0025 33.0131 50.4399C32.7785 50.8665 32.6611 51.3572 32.6611 51.9119V52.1679C32.6611 52.7332 32.7891 53.2399 33.0451 53.6879C33.3118 54.1252 33.6798 54.4665 34.1491 54.7119C34.6185 54.9572 35.1571 55.0799 35.7651 55.0799C36.2665 55.0799 36.7198 54.9945 37.1251 54.8239C37.5411 54.6532 37.9038 54.3972 38.2131 54.0559L39.0611 55.0479C38.6771 55.4959 38.1971 55.8372 37.6211 56.0719C37.0558 56.3065 36.4211 56.4239 35.7171 56.4239ZM40.4394 56.3119L40.5354 55.0159C40.61 55.0265 40.6794 55.0372 40.7434 55.0479C40.8074 55.0585 40.866 55.0639 40.9194 55.0639C41.2607 55.0639 41.5274 54.9465 41.7194 54.7119C41.922 54.4772 42.0714 54.1679 42.1674 53.7839C42.2634 53.3892 42.3327 52.9465 42.3754 52.4559C42.418 51.9652 42.45 51.4745 42.4714 50.9839L42.6154 47.8479H49.1274V56.3279H47.5914V48.7439L47.9594 49.1919H43.6074L43.9594 48.7279L43.8474 51.0799C43.8154 51.8265 43.7567 52.5252 43.6714 53.1759C43.586 53.8265 43.4527 54.3972 43.2714 54.8879C43.1007 55.3785 42.8607 55.7625 42.5514 56.0399C42.2527 56.3172 41.8634 56.4559 41.3834 56.4559C41.2447 56.4559 41.0954 56.4399 40.9354 56.4079C40.786 56.3865 40.6207 56.3545 40.4394 56.3119ZM56.0174 50.7279C57.0947 50.7385 57.916 50.9839 58.4814 51.4639C59.0467 51.9439 59.3294 52.6212 59.3294 53.4959C59.3294 54.4132 59.02 55.1225 58.4014 55.6239C57.7827 56.1145 56.908 56.3545 55.7774 56.3439L52.0974 56.3279V47.8479H53.6334V50.7119L56.0174 50.7279ZM55.6494 55.1759C56.3427 55.1865 56.8654 55.0479 57.2174 54.7599C57.58 54.4719 57.7614 54.0452 57.7614 53.4799C57.7614 52.9252 57.5854 52.5199 57.2334 52.2639C56.8814 52.0079 56.3534 51.8745 55.6494 51.8639L53.6334 51.8319V55.1599L55.6494 55.1759ZM71.3894 55.6079V49.1919H67.7094L67.6294 50.8239C67.608 51.3572 67.5707 51.8745 67.5174 52.3759C67.4747 52.8665 67.4 53.3199 67.2934 53.7359C67.1974 54.1519 67.0534 54.4932 66.8614 54.7599C66.6694 55.0265 66.4134 55.1919 66.0934 55.2559L64.5734 54.9839C64.904 54.9945 65.1707 54.8879 65.3734 54.6639C65.576 54.4292 65.7307 54.1092 65.8374 53.7039C65.9547 53.2985 66.04 52.8399 66.0934 52.3279C66.1467 51.8052 66.1894 51.2665 66.2214 50.7119L66.3494 47.8479H72.9254V55.6079H71.3894ZM64.2374 58.2959V54.9839H74.2214V58.2959H72.7814V56.3279H65.6934V58.2959H64.2374ZM74.8144 56.3119L74.9104 55.0159C74.985 55.0265 75.0544 55.0372 75.1184 55.0479C75.1824 55.0585 75.241 55.0639 75.2944 55.0639C75.6357 55.0639 75.9024 54.9465 76.0944 54.7119C76.297 54.4772 76.4464 54.1679 76.5424 53.7839C76.6384 53.3892 76.7077 52.9465 76.7504 52.4559C76.793 51.9652 76.825 51.4745 76.8464 50.9839L76.9904 47.8479H83.5024V56.3279H81.9664V48.7439L82.3344 49.1919H77.9824L78.3344 48.7279L78.2224 51.0799C78.1904 51.8265 78.1317 52.5252 78.0464 53.1759C77.961 53.8265 77.8277 54.3972 77.6464 54.8879C77.4757 55.3785 77.2357 55.7625 76.9264 56.0399C76.6277 56.3172 76.2384 56.4559 75.7584 56.4559C75.6197 56.4559 75.4704 56.4399 75.3104 56.4079C75.161 56.3865 74.9957 56.3545 74.8144 56.3119ZM91.8964 56.3279V53.3519L92.1364 53.6399H89.4324C88.3017 53.6399 87.4164 53.3999 86.7764 52.9199C86.147 52.4399 85.8324 51.7412 85.8324 50.8239C85.8324 49.8425 86.1684 49.1012 86.8404 48.5999C87.523 48.0985 88.4297 47.8479 89.5604 47.8479H93.2724V56.3279H91.8964ZM85.7524 56.3279L88.0564 53.0799H89.6404L87.4004 56.3279H85.7524ZM91.8964 52.8719V48.7599L92.1364 49.1919H89.6084C88.9044 49.1919 88.3604 49.3252 87.9764 49.5919C87.5924 49.8479 87.4004 50.2745 87.4004 50.8719C87.4004 51.9812 88.115 52.5359 89.5444 52.5359H92.1364L91.8964 52.8719ZM106.71 56.3279L103.43 52.1999L104.694 51.4319L108.518 56.3279H106.71ZM100.566 56.3279V47.8479H102.102V56.3279H100.566ZM101.638 52.7439V51.4319H104.438V52.7439H101.638ZM104.822 52.2639L103.398 52.0719L106.646 47.8479H108.294L104.822 52.2639ZM113.479 56.4239C112.626 56.4239 111.869 56.2372 111.207 55.8639C110.546 55.4905 110.023 54.9785 109.639 54.3279C109.255 53.6665 109.063 52.9199 109.063 52.0879C109.063 51.2452 109.255 50.4985 109.639 49.8479C110.023 49.1972 110.546 48.6905 111.207 48.3279C111.869 47.9545 112.626 47.7679 113.479 47.7679C114.322 47.7679 115.074 47.9545 115.735 48.3279C116.407 48.6905 116.93 49.1972 117.303 49.8479C117.687 50.4879 117.879 51.2345 117.879 52.0879C117.879 52.9305 117.687 53.6772 117.303 54.3279C116.93 54.9785 116.407 55.4905 115.735 55.8639C115.074 56.2372 114.322 56.4239 113.479 56.4239ZM113.479 55.0799C114.023 55.0799 114.509 54.9572 114.935 54.7119C115.373 54.4665 115.714 54.1199 115.959 53.6719C116.205 53.2132 116.327 52.6852 116.327 52.0879C116.327 51.4799 116.205 50.9572 115.959 50.5199C115.714 50.0719 115.373 49.7252 114.935 49.4799C114.509 49.2345 114.023 49.1119 113.479 49.1119C112.935 49.1119 112.45 49.2345 112.023 49.4799C111.597 49.7252 111.255 50.0719 110.999 50.5199C110.743 50.9572 110.615 51.4799 110.615 52.0879C110.615 52.6852 110.743 53.2132 110.999 53.6719C111.255 54.1199 111.597 54.4665 112.023 54.7119C112.45 54.9572 112.935 55.0799 113.479 55.0799ZM121.465 56.3279V48.7919L121.849 49.1919H118.361V47.8479H126.105V49.1919H122.633L123.001 48.7919V56.3279H121.465ZM127.676 56.3279V47.8479H129.212V54.0239L134.411 47.8479H135.804V56.3279H134.267V50.1519L129.084 56.3279H127.676ZM144.929 56.3279L141.649 52.1999L142.913 51.4319L146.737 56.3279H144.929ZM138.785 56.3279V47.8479H140.321V56.3279H138.785ZM139.857 52.7439V51.4319H142.657V52.7439H139.857ZM143.041 52.2639L141.617 52.0719L144.865 47.8479H146.513L143.041 52.2639ZM151.698 56.4239C150.845 56.4239 150.087 56.2372 149.426 55.8639C148.765 55.4905 148.242 54.9785 147.858 54.3279C147.474 53.6665 147.282 52.9199 147.282 52.0879C147.282 51.2452 147.474 50.4985 147.858 49.8479C148.242 49.1972 148.765 48.6905 149.426 48.3279C150.087 47.9545 150.845 47.7679 151.698 47.7679C152.541 47.7679 153.293 47.9545 153.954 48.3279C154.626 48.6905 155.149 49.1972 155.522 49.8479C155.906 50.4879 156.098 51.2345 156.098 52.0879C156.098 52.9305 155.906 53.6772 155.522 54.3279C155.149 54.9785 154.626 55.4905 153.954 55.8639C153.293 56.2372 152.541 56.4239 151.698 56.4239ZM151.698 55.0799C152.242 55.0799 152.727 54.9572 153.154 54.7119C153.591 54.4665 153.933 54.1199 154.178 53.6719C154.423 53.2132 154.546 52.6852 154.546 52.0879C154.546 51.4799 154.423 50.9572 154.178 50.5199C153.933 50.0719 153.591 49.7252 153.154 49.4799C152.727 49.2345 152.242 49.1119 151.698 49.1119C151.154 49.1119 150.669 49.2345 150.242 49.4799C149.815 49.7252 149.474 50.0719 149.218 50.5199C148.962 50.9572 148.834 51.4799 148.834 52.0879C148.834 52.6852 148.962 53.2132 149.218 53.6719C149.474 54.1199 149.815 54.4665 150.242 54.7119C150.669 54.9572 151.154 55.0799 151.698 55.0799ZM158.316 56.3279V47.8479H162.252C163.244 47.8479 164.023 48.0399 164.588 48.4239C165.164 48.7972 165.452 49.3305 165.452 50.0239C165.452 50.7172 165.18 51.2559 164.636 51.6399C164.103 52.0132 163.393 52.1999 162.508 52.1999L162.748 51.7839C163.761 51.7839 164.513 51.9705 165.004 52.3439C165.495 52.7172 165.74 53.2665 165.74 53.9919C165.74 54.7279 165.463 55.3039 164.908 55.7199C164.364 56.1252 163.527 56.3279 162.396 56.3279H158.316ZM159.82 55.1439H162.284C162.924 55.1439 163.404 55.0479 163.724 54.8559C164.044 54.6532 164.204 54.3332 164.204 53.8959C164.204 53.4479 164.055 53.1225 163.756 52.9199C163.468 52.7065 163.009 52.5999 162.38 52.5999H159.82V55.1439ZM159.82 51.4959H162.124C162.711 51.4959 163.153 51.3892 163.452 51.1759C163.761 50.9519 163.916 50.6425 163.916 50.2479C163.916 49.8425 163.761 49.5385 163.452 49.3359C163.153 49.1332 162.711 49.0319 162.124 49.0319H159.82V51.4959Z" fill="#F6A6BF"/>
<defs>
<clipPath id="clip0_13_1622">
<rect width="187" height="35.4098" fill="white"/>
</clipPath>
</defs>
</svg>
