<svg width="225" height="218" viewBox="0 0 225 218" fill="none" xmlns="http://www.w3.org/2000/svg">
<g opacity="0.3" clip-path="url(#clip0_11_728)">
<path d="M170.273 70.2412C157.782 65.96 142.807 74.8008 140.889 87.5663C138.481 103.715 156.757 113.375 172.036 104.071C175.266 102.086 175.83 101.53 178.621 97.2736C181.321 93.1557 181.698 92.2778 182.082 89.156C182.52 85.3425 181.692 81.2285 179.669 77.7203C178.211 75.1772 173.35 71.331 170.273 70.2412ZM172.329 83.0312C173.657 86.282 173.572 88.5414 171.984 91.4699C166.057 102.336 148.942 100.846 149.674 89.4857C150.334 78.7402 168.336 73.6019 172.329 83.0312Z" fill="#F6A6BF"/>
<path d="M116.721 36.2784C113.215 35.4369 107.465 36.4977 103.897 38.5917C101.186 40.1893 100.531 40.8844 97.8312 45.0022C95.0402 49.2588 94.7551 49.998 94.2235 53.7506C93.0612 62.1168 96.1931 70.1217 102.448 74.6827C106.669 77.7794 110.238 78.7281 115.021 78.026C126.373 76.3354 133.661 64.5089 131.039 52.0754C129.825 46.3191 127.446 42.6438 122.791 39.3958C120.386 37.6877 118.327 36.6693 116.721 36.2784ZM120.848 49.7641C123.343 54.1764 123.319 59.3862 120.809 64.0254C114.76 75.0768 101.1 67.9129 103.138 54.7625C103.977 49.4254 108.321 44.9299 112.834 44.8439C115.837 44.8276 119.201 46.8993 120.848 49.7641Z" fill="#F6A6BF"/>
<path d="M175.973 118.557C168.847 116.137 162.229 116.695 156.028 120.371C152.199 122.559 151.772 123.007 149.224 126.893C146.948 130.363 146.406 131.595 146.138 133.933C145.683 137.67 146.478 141.63 148.424 145.154C149.837 147.667 150.536 148.324 154.491 150.915C158.678 153.658 159.158 153.84 163.523 154.385C180.937 156.534 193.99 140.481 185.964 126.955C183.644 122.987 179.993 119.934 175.973 118.557ZM178.76 131.958C180.328 136.16 179.119 139.932 175.268 142.964C169.431 147.606 159.374 146.309 155.971 140.441C152.6 134.728 157.074 127.803 165.207 126.253C170.757 125.193 177.271 127.939 178.76 131.958Z" fill="#F6A6BF"/>
<path d="M69.6586 51.3484C65.2712 50.1274 60.4713 50.7528 56.4443 53.1413C53.8412 54.6768 53.0484 55.4802 50.8035 58.904C48.4373 62.5129 48.1825 63.2058 47.6873 67.5114C45.5853 84.9189 62.1263 98.1374 76.2502 90.3923C78.7017 89.0881 79.357 88.393 81.9052 84.5066C84.3766 80.6359 84.8134 79.6654 85.1671 76.5899C86.0949 69.3929 83.5496 61.5078 78.6784 56.6627C75.7371 53.7434 73.6293 52.4947 69.6586 51.3484ZM74.4861 65.4911C78.1681 71.5413 76.668 80.0169 71.4294 82.9345C69.0549 84.2229 64.7687 83.862 62.1632 82.155C56.5802 78.497 54.6476 68.7645 58.3183 63.1661C59.9868 60.6214 63.9148 59.0941 67.218 59.7369C69.2549 60.0793 73.0134 63.071 74.4861 65.4911Z" fill="#F6A6BF"/>
<path d="M113.377 94.939C106.174 92.5346 96.8189 93.615 90.0674 97.7241C86.2548 99.9885 86.1011 100.02 81.6895 99.4447C78.4652 98.9858 75.7244 99.1082 72.1584 99.8806C50.4854 104.532 42.3686 130.301 57.3565 146.801C62.4826 152.475 71.5326 156.222 79.2169 155.965L82.7121 155.807L83.9625 159.074C86.6999 166.159 93.3896 172.592 100.781 175.318C113.29 179.876 127.183 175.221 134.495 164.071C140.167 155.419 140.274 143.185 134.805 134.179C132.455 130.258 132.438 130.181 133.041 125.813C134.207 117.846 131.168 108.381 125.579 102.603C123.056 99.9577 116.87 96.1033 113.377 94.939ZM120.608 110.59C124.122 115.273 125.259 122.567 123.453 128.263C122.424 131.557 122.622 132.877 124.742 135.325C127.581 138.706 128.871 141.403 129.606 145.456C130.62 151.214 130.034 154.137 126.727 159.18C124.421 162.696 123.568 163.592 121.088 165.142C116.97 167.67 112.866 168.552 108.131 167.963C104.429 167.523 103.64 167.204 99.8252 164.705C96.1962 162.327 95.4336 161.563 93.8516 159.005C92.8947 157.32 91.6908 154.084 91.1586 151.751C89.9141 146.041 88.8441 145.34 83.0167 146.416C80.634 146.905 77.1387 147.063 75.2879 146.842C72.357 146.443 71.3516 146.049 67.7227 143.672C64.1867 141.355 63.238 140.469 61.7187 138.018C59.1656 133.898 58.2611 129.8 58.829 125.079C59.2838 121.342 59.5689 120.603 62.0565 116.809C65.4097 111.796 67.8874 110.046 73.4963 108.694C77.5073 107.75 80.4968 107.857 84.7305 109.11C87.8213 110.076 89.1118 109.731 91.7229 107.474C96.1968 103.592 103.341 101.724 108.93 102.939C113.052 103.854 118.107 107.1 120.608 110.59Z" fill="#F6A6BF"/>
</g>
<defs>
<clipPath id="clip0_11_728">
<rect width="173.009" height="145.985" fill="white" transform="matrix(0.836458 0.548031 -0.548321 0.836268 80.2266 0.946289)"/>
</clipPath>
</defs>
</svg>
