<svg width="283" height="206" viewBox="0 0 283 206" fill="none" xmlns="http://www.w3.org/2000/svg">
<g opacity="0.8" clip-path="url(#clip0_0_1)">
<path d="M25.9859 53.5808L35.3132 185.588C35.4808 187.952 36.4843 190.171 38.1331 191.822C39.7818 193.474 41.9608 194.443 44.2563 194.545L250.322 203.695C252.627 203.796 254.887 203.017 256.67 201.507C258.453 199.997 259.635 197.862 259.988 195.51L282.884 42.9127C283.097 41.4965 283.002 40.0492 282.607 38.6754C282.211 37.3016 281.524 36.0358 280.596 34.9695C279.668 33.9031 278.522 33.0629 277.241 32.5096C275.96 31.9562 274.575 31.7036 273.188 31.77L34.8835 43.2205C33.6347 43.2818 32.4104 43.6005 31.2828 44.1577C30.1551 44.7149 29.147 45.4994 28.3178 46.4649C27.4886 47.4304 26.8551 48.5574 26.4546 49.7795C26.0541 51.0016 25.8947 52.2941 25.9859 53.5808Z" fill="#FAF7F5"/>
<path d="M195.945 41.0788C203.68 38.6095 208.047 30.2554 205.697 22.4194C203.348 14.5834 195.173 10.2328 187.438 12.7021C179.702 15.1713 175.336 23.5254 177.685 31.3615C180.035 39.1975 188.21 43.5481 195.945 41.0788Z" fill="#FAF7F5"/>
<path d="M39.0744 126.061C36.0412 138.122 24.9899 145.592 14.4139 142.754C3.83784 139.916 -2.26916 127.829 0.764118 115.774C3.7974 103.718 14.8486 96.2425 25.4247 99.0804C36.0007 101.918 42.1178 114 39.0744 126.061Z" fill="#FAF7F5"/>
<path d="M254.443 128.277C253.992 128.279 253.545 128.18 253.134 127.986C252.724 127.792 252.359 127.509 252.065 127.155C251.771 126.801 251.555 126.385 251.433 125.937C251.31 125.489 251.283 125.018 251.354 124.558L265.414 30.8095C265.667 29.1224 265.554 27.3982 265.083 25.7618C264.611 24.1253 263.793 22.6175 262.688 21.3473C261.582 20.0772 260.217 19.0765 258.69 18.4178C257.164 17.759 255.515 17.4586 253.862 17.5383L212.66 19.5207C212.25 19.5402 211.84 19.4762 211.454 19.3324C211.068 19.1885 210.713 18.9676 210.41 18.6823C210.107 18.397 209.861 18.0528 209.687 17.6695C209.512 17.2861 209.413 16.8711 209.394 16.4481C209.375 16.025 209.437 15.6023 209.576 15.204C209.716 14.8057 209.93 14.4397 210.206 14.1267C210.483 13.8138 210.816 13.5601 211.188 13.3802C211.559 13.2003 211.962 13.0976 212.372 13.0781L253.574 11.101C256.154 10.9763 258.728 11.4453 261.111 12.474C263.493 13.5027 265.624 15.0653 267.349 17.0487C269.075 19.0321 270.351 21.3866 271.085 23.9416C271.82 26.4966 271.994 29.1882 271.596 31.8215L257.527 125.549C257.414 126.309 257.04 127.002 256.475 127.502C255.909 128.003 255.188 128.277 254.443 128.277Z" fill="#F6A6BF"/>
<path d="M208.149 191.598H208.013L35.0348 183.913C30.7691 183.723 26.7198 181.922 23.6562 178.853C20.5926 175.785 18.7283 171.661 18.4175 167.267L17.2952 151.325C17.2504 150.895 17.29 150.46 17.4116 150.046C17.5332 149.632 17.7343 149.247 18.0029 148.915C18.2715 148.583 18.6022 148.31 18.9752 148.113C19.3482 147.915 19.7559 147.797 20.174 147.765C20.5921 147.734 21.0121 147.79 21.409 147.929C21.8058 148.069 22.1714 148.289 22.484 148.577C22.7965 148.866 23.0496 149.216 23.2282 149.607C23.4068 149.999 23.5073 150.423 23.5235 150.856L24.6509 166.777C24.8481 169.594 26.0425 172.239 28.0066 174.207C29.9707 176.175 32.5675 177.329 35.3028 177.45L208.286 185.15C208.696 185.159 209.101 185.251 209.476 185.421C209.852 185.591 210.192 185.836 210.476 186.142C210.76 186.448 210.983 186.808 211.132 187.203C211.281 187.597 211.353 188.018 211.344 188.441C211.336 188.865 211.246 189.282 211.081 189.67C210.916 190.058 210.679 190.408 210.383 190.701C210.087 190.994 209.737 191.224 209.355 191.378C208.973 191.532 208.565 191.606 208.154 191.598H208.149Z" fill="#F6A6BF"/>
<path d="M15.489 84.7763C14.7006 84.7757 13.9417 84.4671 13.3648 83.9126C12.788 83.358 12.4361 82.5986 12.3799 81.7872L9.7763 44.9629C9.60774 42.5701 9.90518 40.1667 10.6511 37.8944C11.397 35.6221 12.5762 33.527 14.1193 31.7324C15.6624 29.9379 17.538 28.4804 19.6357 27.4457C21.7333 26.4111 24.0105 25.8203 26.333 25.7082L165.818 19.0101C166.236 18.9759 166.656 19.0287 167.053 19.1653C167.45 19.3019 167.817 19.5195 168.131 19.8052C168.445 20.0909 168.7 20.4388 168.882 20.8283C169.063 21.2178 169.166 21.6409 169.186 22.0725C169.206 22.5041 169.141 22.9354 168.996 23.3407C168.851 23.7461 168.628 24.1172 168.342 24.432C168.055 24.7468 167.71 24.9989 167.327 25.1734C166.943 25.3478 166.53 25.441 166.112 25.4474L26.6211 32.1508C25.1318 32.2213 23.6713 32.599 22.3258 33.2617C20.9804 33.9245 19.7773 34.8587 18.7876 36.0093C17.7979 37.1598 17.0418 38.5034 16.5638 39.9606C16.0858 41.4178 15.8957 42.9591 16.0046 44.4934L18.6031 81.3177C18.663 82.1698 18.3926 83.0116 17.8513 83.6582C17.3101 84.3047 16.5422 84.7031 15.7165 84.7659L15.489 84.7763Z" fill="#F6A6BF"/>
<path d="M189.822 30.6996C186.642 30.7147 183.54 29.6793 180.97 27.7448C178.4 25.8104 176.498 23.0783 175.541 19.9481C174.717 17.0195 174.743 13.9059 175.616 10.9924C176.489 8.07898 178.17 5.49345 180.452 3.55565C182.734 1.61785 185.516 0.412785 188.455 0.0895156C191.394 -0.233754 194.36 0.338947 196.986 1.73679C198.733 2.65681 200.283 3.92911 201.545 5.47838C202.806 7.02765 203.754 8.8224 204.332 10.7564C205.473 14.6766 205.06 18.9037 203.184 22.5104C201.309 26.1172 198.123 28.809 194.327 29.9953C192.868 30.4605 191.35 30.6978 189.822 30.6996ZM190.085 6.44741C189.177 6.44866 188.273 6.5911 187.406 6.86996C185.186 7.54376 183.317 9.099 182.208 11.1941C181.099 13.2892 180.841 15.7529 181.491 18.044C182.241 20.2771 183.802 22.1221 185.845 23.1893C187.889 24.2566 190.254 24.4626 192.442 23.7638C194.63 23.065 196.469 21.5162 197.57 19.4443C198.672 17.3725 198.95 14.94 198.346 12.6604C198.016 11.541 197.47 10.502 196.741 9.60561C196.012 8.70921 195.115 7.97391 194.104 7.44379C192.86 6.78848 191.483 6.44701 190.085 6.44741Z" fill="#F6A6BF"/>
<path d="M22.9671 136.609C21.3174 136.609 19.6745 136.392 18.0784 135.962C15.3356 135.21 12.7788 133.866 10.5773 132.017C8.37585 130.169 6.57989 127.86 5.30831 125.242C2.65423 119.785 2.01135 113.52 3.49925 107.61C4.98715 101.701 8.50453 96.5511 13.3971 93.1178C15.7459 91.4761 18.4055 90.3673 21.2003 89.8646C23.995 89.3619 26.8614 89.4768 29.6099 90.2017C40.8482 93.2273 47.3799 105.94 44.195 118.554C41.4549 129.337 32.5168 136.609 22.9671 136.609ZM24.7112 96.0287C21.9075 96.0519 19.1722 96.9244 16.8449 98.5379C13.2484 101.096 10.6633 104.903 9.56162 109.264C8.45992 113.626 8.9151 118.251 10.844 122.294C11.7192 124.107 12.9564 125.708 14.4743 126.992C15.9922 128.276 17.7563 129.214 19.6507 129.744C27.5372 131.867 35.8282 126.123 38.1486 116.953C40.464 107.777 35.9343 98.59 28.0377 96.4721C26.9516 96.179 25.8338 96.0299 24.7112 96.0287Z" fill="#F6A6BF"/>
<path d="M272.348 180.611C272.272 194.695 262.186 206.073 249.821 206C237.455 205.927 227.496 194.445 227.577 180.35C227.658 166.254 237.743 154.893 250.104 154.96C262.464 155.028 272.424 166.52 272.348 180.611Z" fill="#FAF7F5"/>
<path d="M249.002 197.069H248.88C245.729 197.035 242.62 196.311 239.759 194.946C236.898 193.581 234.35 191.606 232.283 189.15C227.916 184.039 225.55 177.434 225.645 170.621C225.721 156.16 236.211 144.449 249.042 144.449H249.168C252.319 144.483 255.428 145.207 258.288 146.572C261.148 147.937 263.695 149.912 265.76 152.368C270.128 157.479 272.496 164.084 272.403 170.897C272.322 185.353 261.837 197.069 249.002 197.069ZM249.042 150.886C239.639 150.886 231.95 159.754 231.889 170.652C231.808 175.867 233.61 180.926 236.944 184.847C238.431 186.628 240.268 188.064 242.332 189.06C244.397 190.055 246.642 190.587 248.921 190.621H249.007C258.415 190.621 266.099 181.753 266.16 170.855C266.243 165.64 264.44 160.58 261.104 156.661C259.617 154.881 257.781 153.447 255.718 152.453C253.654 151.458 251.41 150.926 249.133 150.891L249.042 150.886Z" fill="#F6A6BF"/>
</g>
<path d="M233.574 11.164C231.922 11.5508 230.891 12.1015 229.777 13.2148C228.535 14.4453 227.727 15.8633 227.293 17.5625C227.07 18.4531 227.094 20.7851 227.328 21.8984C227.434 22.3789 227.562 23.082 227.598 23.4453L227.68 24.1015L227.117 24.1836C223.848 24.6406 220.754 25.7656 218.293 27.4062C217.098 28.2031 215.352 29.8086 214.695 30.6992C214.402 31.0976 214.227 31.25 214.133 31.1679C213.816 30.8984 212.082 30.3242 211.098 30.1367C209.832 29.914 209.387 29.9726 208.648 30.4414C208.027 30.8398 207.488 31.789 207.254 32.8906C207.031 33.9687 207.184 37.3203 207.547 39.3125C207.816 40.789 208.602 44.0937 208.871 44.8672C208.965 45.1133 208.848 45.4297 208.203 46.6836L207.441 48.207L206.797 48.125C205.941 48.0312 203.82 48.0078 203.574 48.1015C203.281 48.2187 203.023 48.8281 203.105 49.2031C203.246 49.8476 203.504 49.9414 205.168 50.0351C206.012 50.082 206.727 50.1406 206.75 50.1758C206.785 50.1992 206.75 50.375 206.68 50.5625C206.469 51.0898 206.094 53.5039 206.094 54.2656C206.094 54.9453 206.082 54.957 205.719 55.0859C205.508 55.1679 204.875 55.4492 204.324 55.7187C203.316 56.2343 203.047 56.5156 203.047 57.0664C203.047 57.3711 203.656 57.9922 203.961 57.9922C204.102 57.9922 204.641 57.7812 205.168 57.5234C206.199 57.0312 206.316 57.0429 206.328 57.6406C206.34 57.8047 206.539 58.5078 206.773 59.2226L207.207 60.5L206.199 61.5078C205.484 62.2226 205.098 62.7148 204.828 63.2773C203.398 66.2422 204.113 68.5976 206.855 69.957C208.309 70.6836 209.68 70.9179 212.246 70.9297C214.707 70.9297 215.492 70.7656 217.32 69.875L218.422 69.3476L219.781 69.6992C223.285 70.6015 226.016 70.9297 230.059 70.9297C234.102 70.9297 236.832 70.6015 240.336 69.6992L241.695 69.3476L242.797 69.875C244.625 70.7656 245.41 70.9297 247.871 70.9297C250.426 70.9179 251.75 70.6836 253.238 69.9687C255.992 68.6211 256.719 66.2539 255.289 63.2773C255.02 62.7148 254.633 62.2226 253.906 61.4961L252.887 60.4765L253.121 59.914C253.238 59.5976 253.473 58.8476 253.625 58.2383C253.777 57.6289 253.93 57.1133 253.953 57.0898C253.977 57.0547 254.422 57.2539 254.949 57.5117C255.465 57.7812 256.004 57.9922 256.145 57.9922C256.449 57.9922 257.07 57.3828 257.07 57.0664C257.07 56.5156 256.801 56.2343 255.793 55.7187C255.242 55.4492 254.609 55.1679 254.41 55.0859C254.035 54.957 254.023 54.9453 254.023 54.2656C254.023 53.5039 253.648 51.0898 253.438 50.5625C253.367 50.375 253.332 50.1992 253.367 50.1758C253.391 50.1406 254.105 50.082 254.949 50.0351C256.613 49.9414 256.871 49.8476 257.012 49.2031C257.094 48.8281 256.836 48.2187 256.543 48.1015C256.297 48.0078 254.176 48.0312 253.32 48.125L252.676 48.207L251.926 46.6953L251.188 45.1836L251.609 43.6484C253.414 37.039 253.52 32.3984 251.867 30.7461C251.188 30.0664 250.543 29.9023 249.324 30.0898C248.34 30.2422 247.109 30.6172 246.324 31.0156L245.832 31.2734L245.422 30.6992C244.754 29.7968 242.984 28.1797 241.801 27.4062C239.797 26.0703 237.148 24.9687 234.781 24.5L233.691 24.2773L233.562 23C233.48 22.2968 233.34 21.2773 233.223 20.7265C233 19.625 233.047 18.9687 233.387 18.289C233.691 17.6797 234.348 17.1289 234.863 17.0234C235.59 16.8945 236.844 17.3398 238.062 18.1718C238.812 18.6875 239.352 18.875 240.09 18.875C242.316 18.875 243.699 16.5898 242.715 14.5625C242.469 14.0586 242.211 13.7773 241.613 13.332C240.617 12.5937 238.742 11.6562 237.617 11.3515C236.48 11.0351 234.523 10.9414 233.574 11.164ZM237.488 13.414C238.508 13.7539 240.125 14.6445 240.699 15.1836C241.086 15.5703 241.121 16.1093 240.77 16.5547C240.418 17 239.82 16.9765 239.129 16.4726C238.332 15.9101 236.832 15.2422 236.035 15.0898C234.195 14.75 232.637 15.5117 231.711 17.1992C231.02 18.4765 230.926 19.3906 231.277 21.2539C231.406 21.8984 231.547 22.7773 231.582 23.2109L231.664 24.0078H230.668H229.672L229.602 23.3281C229.555 22.9648 229.414 22.0742 229.273 21.3711C228.852 19.0859 229.168 17.3281 230.305 15.6523C231.945 13.25 234.547 12.4414 237.488 13.414ZM232.73 26.1758C237.242 26.7617 241.18 28.7422 243.605 31.6367L244.062 32.1875L243.207 32.6914C242.75 32.9609 241.742 33.6054 240.98 34.1093L239.598 35.0351L238.754 34.6953C235.801 33.4765 232.801 32.9609 229.297 33.0664C226.438 33.1484 224.012 33.6406 221.551 34.625L220.531 35.0234L219.441 34.2851C218.832 33.875 217.824 33.2304 217.203 32.8554L216.066 32.1758L216.406 31.7539C217.309 30.6172 218.727 29.4453 220.273 28.5312C223.707 26.4922 228.406 25.6133 232.73 26.1758ZM211.215 32.2109C211.754 32.3398 212.516 32.5859 212.914 32.7734C214.039 33.289 216.582 34.7773 218.445 36.0195C219.477 36.7109 220.227 37.1328 220.414 37.1328C220.578 37.1328 221.105 36.9687 221.574 36.7695C224.609 35.4687 227.387 34.9531 230.703 35.0586C233.598 35.1523 235.52 35.5508 238.145 36.6172C238.859 36.8984 239.586 37.1328 239.773 37.1328C239.984 37.1328 240.523 36.8398 241.344 36.2656C245.516 33.3945 249.43 31.5781 250.379 32.082C250.977 32.4101 251.211 34.8945 250.871 37.4843C250.648 39.125 250.086 41.7383 249.605 43.3789C248.984 45.5 248.984 45.4765 249.676 46.6953C249.992 47.2695 250.344 47.9258 250.438 48.1601L250.613 48.5703L249.254 48.9687C247.695 49.414 245.117 50.6445 244.484 51.2304C244.039 51.6523 243.969 51.9687 244.203 52.4023C244.578 53.1172 245.07 53.1172 246.359 52.3789C247.965 51.4531 251.105 50.3164 251.34 50.5742C251.539 50.8086 252.16 54.2773 252.02 54.4179C251.996 54.4414 251.469 54.3828 250.859 54.289C249.465 54.0898 247.121 53.9492 246.723 54.0547C246.395 54.1367 246.055 54.6523 246.055 55.0625C246.055 55.2031 246.195 55.4609 246.383 55.6367C246.688 55.9414 246.781 55.9648 248.105 56.0351C249.5 56.1172 251.773 56.4101 251.902 56.5273C251.984 56.6211 251.715 57.8984 251.41 58.789C251.141 59.6211 251.258 59.5859 249.98 59.2343C249.066 58.9765 247.074 58.9648 246.113 59.2226C242.621 60.125 239.855 63.3945 240.113 66.3008C240.16 66.7226 240.219 67.2148 240.254 67.3789C240.336 67.6718 240.312 67.6836 238.941 67.9883C235.73 68.7265 233.715 68.9375 230.059 68.9375C226.402 68.9375 224.387 68.7265 221.176 67.9883C219.805 67.6836 219.781 67.6718 219.863 67.3789C219.898 67.2148 219.957 66.7226 220.004 66.3008C220.262 63.3593 217.543 60.1601 214.004 59.2226C213.055 58.9648 211.062 58.9765 210.137 59.2343C208.895 59.5742 208.977 59.5976 208.766 58.9648C208.508 58.2265 208.203 57.0195 208.203 56.7383C208.203 56.539 208.332 56.4804 209 56.375C210.172 56.164 211.801 56 212.633 56C213.301 56 213.418 55.9648 213.723 55.6601C213.91 55.4726 214.062 55.2031 214.062 55.0625C214.062 54.6523 213.723 54.1367 213.395 54.0547C212.996 53.9492 210.652 54.0898 209.258 54.289C208.648 54.3828 208.121 54.4414 208.098 54.4179C207.957 54.2773 208.578 50.8086 208.777 50.5742C209.012 50.3164 212.152 51.4531 213.758 52.3789C215.047 53.1172 215.539 53.1172 215.914 52.4023C216.301 51.6875 215.891 51.207 214.098 50.2929C212.715 49.5781 211.262 49.0156 210.113 48.7343L209.504 48.5937L209.68 48.1718C209.773 47.9258 210.113 47.2812 210.43 46.7187C210.758 46.1445 211.016 45.5468 211.016 45.3711C211.016 45.1836 210.805 44.3047 210.535 43.4023C210.008 41.5508 209.457 38.9258 209.246 37.2265C209.059 35.6093 209.152 33.0898 209.422 32.5625C209.785 31.8828 209.82 31.8711 211.215 32.2109ZM213.723 61.2265C216.277 61.9765 218.363 64.5195 218 66.4648C217.848 67.2734 216.57 68.2929 215.352 68.5742L215.059 68.6445V67.1328C215.059 65.7031 215.047 65.6093 214.777 65.3281C214.379 64.9062 213.746 64.9062 213.348 65.3281C213.102 65.5976 213.066 65.7383 213.031 66.875C212.984 68.5273 212.961 68.6328 212.48 68.8554C212.141 69.0195 212.035 69.0195 211.707 68.8906C211.168 68.6679 211.016 68.1875 211.016 66.7578C211.016 65.6914 210.992 65.539 210.758 65.2929C210.395 64.9062 209.738 64.9297 209.363 65.3281C209.094 65.6093 209.082 65.7031 209.082 67.1328V68.6445L208.789 68.5742C207.547 68.2929 206.305 67.3086 206.141 66.4883C205.93 65.3515 206.445 64.0742 207.547 62.9609C208.859 61.6484 210.266 61.0508 212.023 61.039C212.656 61.039 213.336 61.1093 213.723 61.2265ZM249.699 61.2265C251.844 61.8593 253.801 63.8281 253.988 65.5508C254.082 66.3711 253.941 66.875 253.426 67.4258C253.004 67.8828 252.043 68.4101 251.328 68.5742L251.035 68.6445V67.1328C251.035 65.7031 251.023 65.6093 250.754 65.3281C250.391 64.9414 249.758 64.9179 249.371 65.2812C249.125 65.5156 249.102 65.6328 249.102 66.7461C249.102 68.1875 248.949 68.6679 248.41 68.8906C248.082 69.0195 247.977 69.0195 247.637 68.8554C247.156 68.6328 247.133 68.5273 247.086 66.875C247.051 65.7383 247.016 65.5976 246.77 65.3281C246.371 64.9062 245.738 64.9062 245.34 65.3281C245.07 65.6093 245.059 65.7031 245.059 67.1328L245.07 68.6445L244.766 68.5742C244.074 68.4218 242.996 67.8125 242.609 67.3437C241.941 66.5703 241.906 65.5976 242.492 64.4023C243.125 63.0781 244.602 61.8359 246.137 61.3203C247.121 60.9804 248.727 60.9453 249.699 61.2265Z" fill="#241D50"/>
<path d="M218.059 46.2853C216.934 46.5783 216.395 46.8478 216.184 47.2228C215.867 47.7853 216.348 48.6174 216.992 48.6174C217.168 48.6174 217.614 48.5119 218 48.3713C218.387 48.2306 219.137 48.1017 219.711 48.0666C221.422 47.9611 222.266 48.4299 222.934 49.8713C223.145 50.34 223.426 50.7736 223.555 50.8439C223.953 51.0549 224.375 50.9728 224.75 50.6095C225.184 50.1759 225.16 49.8244 224.657 48.7931C224.024 47.5158 222.969 46.6017 221.692 46.2267C220.813 45.9689 219.149 45.9924 218.059 46.2853Z" fill="#241D50"/>
<path d="M237.418 46.215C235.813 46.7072 234.289 48.3947 234.125 49.8478C234.078 50.2814 234.113 50.3986 234.371 50.6564C234.957 51.2423 235.789 50.9376 236.094 50.0236C236.305 49.3908 237.078 48.5236 237.676 48.254C238.332 47.9494 239.668 47.9611 240.723 48.2775C242.059 48.6759 242.363 48.6876 242.703 48.3361C243.008 48.0431 243.09 47.5744 242.938 47.1525C242.832 46.883 242.129 46.5548 241.063 46.2736C239.996 46.004 238.191 45.9689 237.418 46.215Z" fill="#241D50"/>
<path d="M227.48 52.1795C226.438 52.6834 225.898 53.6912 226.156 54.6873C226.25 55.0858 226.508 55.4491 227.223 56.2225C227.75 56.7733 228.371 57.3592 228.605 57.5233L229.051 57.8162L229.062 59.5741C229.062 61.1795 229.039 61.3905 228.805 61.8592C228.652 62.1405 228.395 62.4686 228.23 62.5975C227.586 63.0662 226.543 63.0662 225.91 62.5975C225.289 62.1287 225.16 61.8123 225.078 60.617C225.008 59.6209 224.973 59.4569 224.738 59.2694C224.293 58.9061 223.719 58.9412 223.355 59.3514C223.121 59.6092 223.086 59.7733 223.086 60.6873C223.086 62.0233 223.379 62.8553 224.129 63.6522C225.641 65.2694 228.043 65.41 229.684 63.9686L230.082 63.6287L230.34 63.8983C230.727 64.3084 231.617 64.7537 232.367 64.9061C233.645 65.1639 235.027 64.6834 235.988 63.6522C236.738 62.8553 237.031 62.0233 237.031 60.6873C237.031 59.7733 236.996 59.6092 236.773 59.3514C236.398 58.9412 235.824 58.9061 235.379 59.2694C235.145 59.4569 235.109 59.6209 235.039 60.617C234.957 61.8123 234.828 62.1287 234.207 62.5975C233.574 63.0662 232.531 63.0662 231.887 62.5975C231.723 62.4686 231.465 62.1405 231.324 61.8592C231.078 61.3905 231.055 61.1795 231.055 59.5741L231.066 57.8162L231.512 57.5233C231.746 57.3592 232.367 56.7733 232.895 56.2225C233.609 55.4491 233.867 55.0858 233.961 54.6873C234.184 53.8319 233.809 52.953 233 52.3905C232.543 52.0741 232.543 52.0741 230.188 52.0506C228.348 52.0272 227.75 52.0506 227.48 52.1795ZM231.945 54.1366C232.051 54.3123 230.34 55.9998 230.059 55.9998C229.777 55.9998 228.066 54.3123 228.172 54.1366C228.23 54.0545 228.828 54.0077 230.059 54.0077C231.289 54.0077 231.887 54.0545 231.945 54.1366Z" fill="#241D50"/>
<path d="M74.4 106.894C73.3333 106.894 72.34 106.721 71.42 106.374C70.5133 106.014 69.72 105.514 69.04 104.874C68.3733 104.221 67.8533 103.454 67.48 102.574C67.1067 101.694 66.92 100.734 66.92 99.694C66.92 98.654 67.1067 97.694 67.48 96.814C67.8533 95.934 68.38 95.174 69.06 94.534C69.74 93.8807 70.5333 93.3807 71.44 93.034C72.3467 92.674 73.34 92.494 74.42 92.494C75.5667 92.494 76.6133 92.694 77.56 93.094C78.5067 93.4807 79.3067 94.0607 79.96 94.834L78.28 96.414C77.7733 95.8674 77.2067 95.4607 76.58 95.194C75.9533 94.914 75.2733 94.774 74.54 94.774C73.8067 94.774 73.1333 94.894 72.52 95.134C71.92 95.374 71.3933 95.714 70.94 96.154C70.5 96.594 70.1533 97.114 69.9 97.714C69.66 98.314 69.54 98.974 69.54 99.694C69.54 100.414 69.66 101.074 69.9 101.674C70.1533 102.274 70.5 102.794 70.94 103.234C71.3933 103.674 71.92 104.014 72.52 104.254C73.1333 104.494 73.8067 104.614 74.54 104.614C75.2733 104.614 75.9533 104.481 76.58 104.214C77.2067 103.934 77.7733 103.514 78.28 102.954L79.96 104.554C79.3067 105.314 78.5067 105.894 77.56 106.294C76.6133 106.694 75.56 106.894 74.4 106.894ZM89.7541 106.694L85.8941 101.574L87.9341 100.314L92.6941 106.694H89.7541ZM82.0941 106.694V96.014H84.5941V106.694H82.0941ZM83.8541 102.414V100.334H87.4741V102.414H83.8541ZM88.1741 101.654L85.8341 101.374L89.7541 96.014H92.4341L88.1741 101.654ZM94.4573 106.694V96.014H96.9573V103.054L102.857 96.014H105.137V106.694H102.637V99.654L96.7573 106.694H94.4573ZM115.82 105.534V98.134H111.72L111.66 99.854C111.634 100.467 111.594 101.061 111.54 101.634C111.487 102.194 111.4 102.714 111.28 103.194C111.16 103.661 110.987 104.047 110.76 104.354C110.534 104.661 110.234 104.861 109.86 104.954L107.38 104.574C107.78 104.574 108.1 104.447 108.34 104.194C108.594 103.927 108.787 103.567 108.92 103.114C109.067 102.647 109.174 102.121 109.24 101.534C109.307 100.934 109.354 100.314 109.38 99.674L109.52 96.014H118.32V105.534H115.82ZM107 109.074V104.574H119.9V109.074H117.56V106.694H109.32V109.074H107ZM129.793 106.694L125.933 101.574L127.973 100.314L132.733 106.694H129.793ZM122.133 106.694V96.014H124.633V106.694H122.133ZM123.893 102.414V100.334H127.513V102.414H123.893ZM128.213 101.654L125.873 101.374L129.793 96.014H132.473L128.213 101.654ZM140.781 106.694V104.534L140.641 104.074V100.294C140.641 99.5607 140.421 98.994 139.981 98.594C139.541 98.1807 138.874 97.974 137.981 97.974C137.381 97.974 136.788 98.0674 136.201 98.254C135.628 98.4407 135.141 98.7007 134.741 99.034L133.761 97.214C134.334 96.774 135.014 96.4474 135.801 96.234C136.601 96.0074 137.428 95.894 138.281 95.894C139.828 95.894 141.021 96.2674 141.861 97.014C142.714 97.7474 143.141 98.8874 143.141 100.434V106.694H140.781ZM137.421 106.834C136.621 106.834 135.921 106.701 135.321 106.434C134.721 106.154 134.254 105.774 133.921 105.294C133.601 104.801 133.441 104.247 133.441 103.634C133.441 103.034 133.581 102.494 133.861 102.014C134.154 101.534 134.628 101.154 135.281 100.874C135.934 100.594 136.801 100.454 137.881 100.454H140.981V102.114H138.061C137.208 102.114 136.634 102.254 136.341 102.534C136.048 102.801 135.901 103.134 135.901 103.534C135.901 103.987 136.081 104.347 136.441 104.614C136.801 104.881 137.301 105.014 137.941 105.014C138.554 105.014 139.101 104.874 139.581 104.594C140.074 104.314 140.428 103.901 140.641 103.354L141.061 104.854C140.821 105.481 140.388 105.967 139.761 106.314C139.148 106.661 138.368 106.834 137.421 106.834ZM150.782 106.694V104.954L156.342 99.674C156.809 99.234 157.155 98.8474 157.382 98.514C157.609 98.1807 157.755 97.874 157.822 97.594C157.902 97.3007 157.942 97.0274 157.942 96.774C157.942 96.134 157.722 95.6407 157.282 95.294C156.842 94.934 156.195 94.754 155.342 94.754C154.662 94.754 154.042 94.874 153.482 95.114C152.935 95.354 152.462 95.7207 152.062 96.214L150.242 94.814C150.789 94.0807 151.522 93.514 152.442 93.114C153.375 92.7007 154.415 92.494 155.562 92.494C156.575 92.494 157.455 92.6607 158.202 92.994C158.962 93.314 159.542 93.774 159.942 94.374C160.355 94.974 160.562 95.6874 160.562 96.514C160.562 96.9674 160.502 97.4207 160.382 97.874C160.262 98.314 160.035 98.7807 159.702 99.274C159.369 99.7674 158.882 100.321 158.242 100.934L153.462 105.474L152.922 104.494H161.102V106.694H150.782ZM168.443 106.894C167.336 106.894 166.336 106.614 165.443 106.054C164.563 105.494 163.869 104.681 163.363 103.614C162.856 102.534 162.603 101.227 162.603 99.694C162.603 98.1607 162.856 96.8607 163.363 95.794C163.869 94.714 164.563 93.894 165.443 93.334C166.336 92.774 167.336 92.494 168.443 92.494C169.563 92.494 170.563 92.774 171.443 93.334C172.323 93.894 173.016 94.714 173.523 95.794C174.043 96.8607 174.303 98.1607 174.303 99.694C174.303 101.227 174.043 102.534 173.523 103.614C173.016 104.681 172.323 105.494 171.443 106.054C170.563 106.614 169.563 106.894 168.443 106.894ZM168.443 104.634C169.096 104.634 169.663 104.461 170.143 104.114C170.623 103.754 170.996 103.207 171.263 102.474C171.543 101.741 171.683 100.814 171.683 99.694C171.683 98.5607 171.543 97.634 171.263 96.914C170.996 96.1807 170.623 95.6407 170.143 95.294C169.663 94.934 169.096 94.754 168.443 94.754C167.816 94.754 167.256 94.934 166.763 95.294C166.283 95.6407 165.903 96.1807 165.623 96.914C165.356 97.634 165.223 98.5607 165.223 99.694C165.223 100.814 165.356 101.741 165.623 102.474C165.903 103.207 166.283 103.754 166.763 104.114C167.256 104.461 167.816 104.634 168.443 104.634ZM178.02 106.694L187.58 92.694H189.54L179.98 106.694H178.02ZM179.18 100.234C178.526 100.234 177.946 100.074 177.44 99.754C176.933 99.434 176.54 98.9874 176.26 98.414C175.98 97.8407 175.84 97.1674 175.84 96.394C175.84 95.6207 175.98 94.9474 176.26 94.374C176.54 93.8007 176.933 93.354 177.44 93.034C177.946 92.714 178.526 92.554 179.18 92.554C179.86 92.554 180.446 92.714 180.94 93.034C181.446 93.354 181.84 93.8007 182.12 94.374C182.4 94.9474 182.54 95.6207 182.54 96.394C182.54 97.1674 182.4 97.8407 182.12 98.414C181.84 98.9874 181.446 99.434 180.94 99.754C180.446 100.074 179.86 100.234 179.18 100.234ZM179.2 98.834C179.733 98.834 180.146 98.6274 180.44 98.214C180.746 97.7874 180.9 97.1807 180.9 96.394C180.9 95.6074 180.746 95.0074 180.44 94.594C180.146 94.1674 179.733 93.954 179.2 93.954C178.666 93.954 178.24 94.1674 177.92 94.594C177.613 95.0207 177.46 95.6207 177.46 96.394C177.46 97.1674 177.613 97.7674 177.92 98.194C178.24 98.6207 178.666 98.834 179.2 98.834ZM188.36 106.834C187.706 106.834 187.126 106.674 186.62 106.354C186.113 106.034 185.72 105.587 185.44 105.014C185.16 104.441 185.02 103.767 185.02 102.994C185.02 102.221 185.16 101.547 185.44 100.974C185.72 100.401 186.113 99.954 186.62 99.634C187.126 99.314 187.706 99.154 188.36 99.154C189.04 99.154 189.626 99.314 190.12 99.634C190.626 99.954 191.02 100.401 191.3 100.974C191.58 101.547 191.72 102.221 191.72 102.994C191.72 103.767 191.58 104.441 191.3 105.014C191.02 105.587 190.626 106.034 190.12 106.354C189.626 106.674 189.04 106.834 188.36 106.834ZM188.36 105.434C188.893 105.434 189.313 105.221 189.62 104.794C189.926 104.367 190.08 103.767 190.08 102.994C190.08 102.221 189.926 101.621 189.62 101.194C189.313 100.767 188.893 100.554 188.36 100.554C187.84 100.554 187.42 100.767 187.1 101.194C186.793 101.607 186.64 102.207 186.64 102.994C186.64 103.781 186.793 104.387 187.1 104.814C187.42 105.227 187.84 105.434 188.36 105.434ZM206.914 105.534V98.134H202.814L202.754 99.854C202.727 100.467 202.687 101.061 202.634 101.634C202.581 102.194 202.494 102.714 202.374 103.194C202.254 103.661 202.081 104.047 201.854 104.354C201.627 104.661 201.327 104.861 200.954 104.954L198.474 104.574C198.874 104.574 199.194 104.447 199.434 104.194C199.687 103.927 199.881 103.567 200.014 103.114C200.161 102.647 200.267 102.121 200.334 101.534C200.401 100.934 200.447 100.314 200.474 99.674L200.614 96.014H209.414V105.534H206.914ZM198.094 109.074V104.574H210.994V109.074H208.654V106.694H200.414V109.074H198.094ZM217.987 106.834C216.894 106.834 215.92 106.601 215.067 106.134C214.214 105.654 213.54 105.001 213.047 104.174C212.554 103.347 212.307 102.407 212.307 101.354C212.307 100.287 212.554 99.3474 213.047 98.534C213.54 97.7074 214.214 97.0607 215.067 96.594C215.92 96.1274 216.894 95.894 217.987 95.894C219.094 95.894 220.074 96.1274 220.927 96.594C221.794 97.0607 222.467 97.7007 222.947 98.514C223.44 99.3274 223.687 100.274 223.687 101.354C223.687 102.407 223.44 103.347 222.947 104.174C222.467 105.001 221.794 105.654 220.927 106.134C220.074 106.601 219.094 106.834 217.987 106.834ZM217.987 104.694C218.6 104.694 219.147 104.561 219.627 104.294C220.107 104.027 220.48 103.641 220.747 103.134C221.027 102.627 221.167 102.034 221.167 101.354C221.167 100.661 221.027 100.067 220.747 99.574C220.48 99.0674 220.107 98.6807 219.627 98.414C219.147 98.1474 218.607 98.014 218.007 98.014C217.394 98.014 216.847 98.1474 216.367 98.414C215.9 98.6807 215.527 99.0674 215.247 99.574C214.967 100.067 214.827 100.661 214.827 101.354C214.827 102.034 214.967 102.627 215.247 103.134C215.527 103.641 215.9 104.027 216.367 104.294C216.847 104.561 217.387 104.694 217.987 104.694ZM75.34 134.694L71.48 129.574L73.52 128.314L78.28 134.694H75.34ZM67.68 134.694V124.014H70.18V134.694H67.68ZM69.44 130.414V128.334H73.06V130.414H69.44ZM73.76 129.654L71.42 129.374L75.34 124.014H78.02L73.76 129.654ZM84.4517 134.834C83.3584 134.834 82.3851 134.601 81.5317 134.134C80.6784 133.654 80.0051 133.001 79.5117 132.174C79.0184 131.347 78.7717 130.407 78.7717 129.354C78.7717 128.287 79.0184 127.347 79.5117 126.534C80.0051 125.707 80.6784 125.061 81.5317 124.594C82.3851 124.127 83.3584 123.894 84.4517 123.894C85.5584 123.894 86.5384 124.127 87.3917 124.594C88.2584 125.061 88.9317 125.701 89.4117 126.514C89.9051 127.327 90.1517 128.274 90.1517 129.354C90.1517 130.407 89.9051 131.347 89.4117 132.174C88.9317 133.001 88.2584 133.654 87.3917 134.134C86.5384 134.601 85.5584 134.834 84.4517 134.834ZM84.4517 132.694C85.0651 132.694 85.6117 132.561 86.0917 132.294C86.5717 132.027 86.9451 131.641 87.2117 131.134C87.4917 130.627 87.6317 130.034 87.6317 129.354C87.6317 128.661 87.4917 128.067 87.2117 127.574C86.9451 127.067 86.5717 126.681 86.0917 126.414C85.6117 126.147 85.0717 126.014 84.4717 126.014C83.8584 126.014 83.3117 126.147 82.8317 126.414C82.3651 126.681 81.9917 127.067 81.7117 127.574C81.4317 128.067 81.2917 128.661 81.2917 129.354C81.2917 130.034 81.4317 130.627 81.7117 131.134C81.9917 131.641 82.3651 132.027 82.8317 132.294C83.3117 132.561 83.8517 132.694 84.4517 132.694ZM92.6214 134.694V124.014H95.1214V128.354H100.501V124.014H103.001V134.694H100.501V130.474H95.1214V134.694H92.6214ZM106.352 134.694V124.014H108.852V132.574H113.952V124.014H116.452V134.694H106.352ZM115.732 137.074V134.634L116.312 134.694H113.952V132.574H118.072V137.074H115.732ZM126.777 134.694V132.534L126.637 132.074V128.294C126.637 127.561 126.417 126.994 125.977 126.594C125.537 126.181 124.871 125.974 123.977 125.974C123.377 125.974 122.784 126.067 122.197 126.254C121.624 126.441 121.137 126.701 120.737 127.034L119.757 125.214C120.331 124.774 121.011 124.447 121.797 124.234C122.597 124.007 123.424 123.894 124.277 123.894C125.824 123.894 127.017 124.267 127.857 125.014C128.711 125.747 129.137 126.887 129.137 128.434V134.694H126.777ZM123.417 134.834C122.617 134.834 121.917 134.701 121.317 134.434C120.717 134.154 120.251 133.774 119.917 133.294C119.597 132.801 119.437 132.247 119.437 131.634C119.437 131.034 119.577 130.494 119.857 130.014C120.151 129.534 120.624 129.154 121.277 128.874C121.931 128.594 122.797 128.454 123.877 128.454H126.977V130.114H124.057C123.204 130.114 122.631 130.254 122.337 130.534C122.044 130.801 121.897 131.134 121.897 131.534C121.897 131.987 122.077 132.347 122.437 132.614C122.797 132.881 123.297 133.014 123.937 133.014C124.551 133.014 125.097 132.874 125.577 132.594C126.071 132.314 126.424 131.901 126.637 131.354L127.057 132.854C126.817 133.481 126.384 133.967 125.757 134.314C125.144 134.661 124.364 134.834 123.417 134.834ZM137.758 134.694V124.014H140.258V128.354H145.638V124.014H148.138V134.694H145.638V130.474H140.258V134.694H137.758ZM156.249 134.834C155.155 134.834 154.182 134.601 153.329 134.134C152.475 133.654 151.802 133.001 151.309 132.174C150.815 131.347 150.569 130.407 150.569 129.354C150.569 128.287 150.815 127.347 151.309 126.534C151.802 125.707 152.475 125.061 153.329 124.594C154.182 124.127 155.155 123.894 156.249 123.894C157.355 123.894 158.335 124.127 159.189 124.594C160.055 125.061 160.729 125.701 161.209 126.514C161.702 127.327 161.949 128.274 161.949 129.354C161.949 130.407 161.702 131.347 161.209 132.174C160.729 133.001 160.055 133.654 159.189 134.134C158.335 134.601 157.355 134.834 156.249 134.834ZM156.249 132.694C156.862 132.694 157.409 132.561 157.889 132.294C158.369 132.027 158.742 131.641 159.009 131.134C159.289 130.627 159.429 130.034 159.429 129.354C159.429 128.661 159.289 128.067 159.009 127.574C158.742 127.067 158.369 126.681 157.889 126.414C157.409 126.147 156.869 126.014 156.269 126.014C155.655 126.014 155.109 126.147 154.629 126.414C154.162 126.681 153.789 127.067 153.509 127.574C153.229 128.067 153.089 128.661 153.089 129.354C153.089 130.034 153.229 130.627 153.509 131.134C153.789 131.641 154.162 132.027 154.629 132.294C155.109 132.561 155.649 132.694 156.249 132.694ZM170.847 134.694V131.054L171.207 131.474H168.007C166.54 131.474 165.387 131.167 164.547 130.554C163.72 129.927 163.307 129.027 163.307 127.854C163.307 126.601 163.747 125.647 164.627 124.994C165.52 124.341 166.707 124.014 168.187 124.014H173.087V134.694H170.847ZM163.167 134.694L166.047 130.614H168.607L165.847 134.694H163.167ZM170.847 130.254V125.454L171.207 126.114H168.267C167.493 126.114 166.893 126.261 166.467 126.554C166.053 126.834 165.847 127.294 165.847 127.934C165.847 129.134 166.627 129.734 168.187 129.734H171.207L170.847 130.254ZM181.55 134.894C180.67 134.894 179.883 134.761 179.19 134.494C178.496 134.227 177.896 133.821 177.39 133.274C176.896 132.714 176.516 132.007 176.25 131.154C175.983 130.301 175.85 129.287 175.85 128.114C175.85 127.261 175.923 126.481 176.07 125.774C176.216 125.067 176.436 124.434 176.73 123.874C177.023 123.301 177.39 122.794 177.83 122.354C178.283 121.914 178.81 121.547 179.41 121.254C180.01 120.961 180.69 120.734 181.45 120.574L186.41 119.514L186.77 121.754L182.27 122.674C182.016 122.727 181.71 122.807 181.35 122.914C181.003 123.007 180.643 123.154 180.27 123.354C179.91 123.541 179.57 123.814 179.25 124.174C178.943 124.521 178.69 124.974 178.49 125.534C178.303 126.081 178.21 126.767 178.21 127.594C178.21 127.847 178.216 128.041 178.23 128.174C178.256 128.294 178.276 128.427 178.29 128.574C178.316 128.707 178.33 128.907 178.33 129.174L177.39 128.194C177.656 127.514 178.023 126.934 178.49 126.454C178.97 125.961 179.523 125.587 180.15 125.334C180.79 125.067 181.483 124.934 182.23 124.934C183.23 124.934 184.116 125.141 184.89 125.554C185.663 125.967 186.27 126.547 186.71 127.294C187.15 128.041 187.37 128.887 187.37 129.834C187.37 130.821 187.13 131.694 186.65 132.454C186.17 133.214 185.49 133.814 184.61 134.254C183.743 134.681 182.723 134.894 181.55 134.894ZM181.75 132.874C182.35 132.874 182.876 132.747 183.33 132.494C183.796 132.227 184.156 131.867 184.41 131.414C184.676 130.961 184.81 130.454 184.81 129.894C184.81 129.334 184.676 128.847 184.41 128.434C184.156 128.007 183.796 127.667 183.33 127.414C182.876 127.161 182.336 127.034 181.71 127.034C181.11 127.034 180.57 127.154 180.09 127.394C179.623 127.634 179.256 127.967 178.99 128.394C178.736 128.807 178.61 129.287 178.61 129.834C178.61 130.394 178.743 130.907 179.01 131.374C179.276 131.841 179.643 132.207 180.11 132.474C180.59 132.741 181.136 132.874 181.75 132.874ZM195.709 134.834C194.843 134.834 194.049 134.634 193.329 134.234C192.623 133.834 192.056 133.234 191.629 132.434C191.216 131.621 191.009 130.594 191.009 129.354C191.009 128.101 191.209 127.074 191.609 126.274C192.023 125.474 192.583 124.881 193.289 124.494C193.996 124.094 194.803 123.894 195.709 123.894C196.763 123.894 197.689 124.121 198.489 124.574C199.303 125.027 199.943 125.661 200.409 126.474C200.889 127.287 201.129 128.247 201.129 129.354C201.129 130.461 200.889 131.427 200.409 132.254C199.943 133.067 199.303 133.701 198.489 134.154C197.689 134.607 196.763 134.834 195.709 134.834ZM189.789 138.574V124.014H192.169V126.534L192.089 129.374L192.289 132.214V138.574H189.789ZM195.429 132.694C196.029 132.694 196.563 132.561 197.029 132.294C197.509 132.027 197.889 131.641 198.169 131.134C198.449 130.627 198.589 130.034 198.589 129.354C198.589 128.661 198.449 128.067 198.169 127.574C197.889 127.067 197.509 126.681 197.029 126.414C196.563 126.147 196.029 126.014 195.429 126.014C194.829 126.014 194.289 126.147 193.809 126.414C193.329 126.681 192.949 127.067 192.669 127.574C192.389 128.067 192.249 128.661 192.249 129.354C192.249 130.034 192.389 130.627 192.669 131.134C192.949 131.641 193.329 132.027 193.809 132.294C194.289 132.561 194.829 132.694 195.429 132.694ZM210.046 134.694V131.054L210.406 131.474H207.206C205.739 131.474 204.586 131.167 203.746 130.554C202.919 129.927 202.506 129.027 202.506 127.854C202.506 126.601 202.946 125.647 203.826 124.994C204.719 124.341 205.906 124.014 207.386 124.014H212.286V134.694H210.046ZM202.366 134.694L205.246 130.614H207.806L205.046 134.694H202.366ZM210.046 130.254V125.454L210.406 126.114H207.466C206.693 126.114 206.093 126.261 205.666 126.554C205.253 126.834 205.046 127.294 205.046 127.934C205.046 129.134 205.826 129.734 207.386 129.734H210.406L210.046 130.254ZM215.769 130.054L215.289 120.694H218.249L217.749 130.054H215.769ZM216.769 134.834C216.302 134.834 215.915 134.681 215.609 134.374C215.302 134.067 215.149 133.701 215.149 133.274C215.149 132.847 215.302 132.487 215.609 132.194C215.915 131.887 216.302 131.734 216.769 131.734C217.235 131.734 217.615 131.887 217.909 132.194C218.202 132.487 218.349 132.847 218.349 133.274C218.349 133.701 218.202 134.067 217.909 134.374C217.615 134.681 217.235 134.834 216.769 134.834Z" fill="#242424"/>
<defs>
<clipPath id="clip0_0_1">
<rect width="283" height="206" fill="white"/>
</clipPath>
</defs>
</svg>

